<svg width="1086" height="504" viewBox="0 0 1086 504" fill="none" xmlns="http://www.w3.org/2000/svg">
<path d="M119.852 496.376C228.323 495.281 228.452 505.009 336.923 503.914C445.394 502.819 445.33 496.376 553.801 495.281C662.272 494.185 662.207 486.454 770.678 485.359C879.149 484.264 879.214 491.093 987.749 489.998C992.767 489.998 997.078 484.779 994.569 482.073C921.483 402.441 915.499 407.982 842.349 328.35C769.199 248.718 771.257 246.85 698.171 167.218C625.021 87.5856 623.348 89.1319 550.262 9.49996C547.753 6.72959 540.097 -2.29021 537.588 0.544588C466.046 81.5939 467.204 82.6248 395.726 163.674C324.184 244.723 329.717 249.62 258.24 330.734C186.698 411.783 179.17 405.147 107.693 486.196C105.248 488.967 114.963 496.44 119.981 496.376H119.852Z" fill="#91C786"/>
<path d="M79.2727 230.031C77.5337 229.783 75.7946 228.975 74.0556 227.609C72.3165 226.367 71.1365 224.938 70.5154 223.323C70.0185 222.33 69.7701 220.777 69.7701 218.665C69.7701 214.939 70.0185 210.715 70.5154 205.995C71.0123 201.15 71.6955 196.927 72.565 193.325C73.4345 189.101 74.4282 184.133 75.5462 178.419C76.7884 172.705 77.9063 167.549 78.9001 162.953C79.8938 158.109 80.7013 154.134 81.3223 151.029C82.0676 147.923 82.6266 145.377 82.9993 143.389C83.4962 141.277 83.8688 139.6 84.1172 138.358C84.4899 136.992 84.8004 135.75 85.0489 134.632C86.4153 128.545 87.7196 122.521 88.9617 116.558C90.3281 110.596 91.6945 104.571 93.0609 98.4844C93.9304 93.5157 94.7379 90.2239 95.4832 88.6091C96.3527 86.87 97.5949 86.0005 99.2097 86.0005C101.694 86.0005 102.936 87.4911 102.936 90.4723C102.936 91.2176 102.75 92.584 102.377 94.5715C102.129 96.4348 101.756 98.6086 101.259 101.093C100.887 103.577 100.452 106.124 99.955 108.732C99.4581 111.341 98.9613 113.577 98.4644 115.44C97.7191 118.794 96.7254 123.08 95.4832 128.297C94.3652 133.39 93.1851 138.607 91.943 143.948C90.825 149.165 89.7692 154.01 88.7754 158.482C87.7817 162.953 87.0985 166.121 86.7258 167.984C85.8563 171.462 84.9247 175.375 83.9309 179.723C83.0614 184.07 82.1919 188.48 81.3223 192.952C80.577 197.424 79.8938 201.834 79.2727 206.181C78.7759 210.405 78.5274 214.193 78.5274 217.547C78.5274 218.789 78.6517 219.659 78.9001 220.156C79.1485 220.653 79.4591 220.963 79.8317 221.087C80.3286 221.336 81.136 221.46 82.254 221.46C83.6204 221.46 85.4215 221.336 87.6574 221.087C90.0176 220.963 93.3094 220.591 97.5328 219.969C102.998 219.224 106.787 218.851 108.899 218.851C110.762 218.851 112.004 219.1 112.625 219.597C113.371 220.094 113.93 220.839 114.302 221.833C114.426 222.081 114.488 222.454 114.488 222.951C114.488 224.317 113.557 225.311 111.694 225.932C109.955 226.677 106.973 227.36 102.75 227.981C97.1601 228.727 92.6262 229.286 89.1481 229.658C85.67 230.031 83.0614 230.217 81.3223 230.217C80.8255 230.217 80.3907 230.155 80.0181 230.031C79.7696 230.031 79.5212 230.031 79.2727 230.031Z" fill="white"/>
<path d="M116.433 194.07C116.433 191.213 117.116 188.294 118.483 185.313C119.973 182.207 121.837 179.412 124.073 176.928C126.433 174.319 129.041 172.208 131.898 170.593C134.755 168.854 137.612 167.984 140.469 167.984C143.202 167.984 145.562 168.792 147.55 170.407C149.662 172.021 150.717 174.257 150.717 177.114C150.717 179.474 150.096 181.71 148.854 183.822C147.612 185.81 145.997 187.549 144.01 189.039C142.146 190.53 140.035 191.71 137.675 192.579C135.314 193.449 133.078 193.884 130.967 193.884C129.849 193.884 128.979 193.822 128.358 193.697C127.737 193.573 126.992 193.511 126.122 193.511C125.253 193.511 124.818 193.822 124.818 194.443C124.818 194.691 124.88 195.064 125.004 195.561C125.129 195.933 125.315 196.43 125.563 197.051C126.06 198.169 127.054 199.225 128.545 200.219C130.159 201.213 131.774 201.709 133.389 201.709C133.886 201.709 134.693 201.585 135.811 201.337C136.929 201.088 137.985 200.778 138.979 200.405C140.345 199.908 141.712 199.66 143.078 199.66C145.562 199.66 146.991 200.716 147.364 202.827C147.364 203.076 147.364 203.262 147.364 203.386C147.488 203.386 147.55 203.511 147.55 203.759C147.55 204.877 146.991 205.871 145.873 206.74C144.755 207.486 143.389 208.107 141.774 208.603C140.159 209.1 138.544 209.473 136.929 209.721C135.439 209.846 134.196 209.908 133.203 209.908C128.234 209.908 124.197 208.541 121.091 205.809C117.986 202.952 116.433 199.039 116.433 194.07ZM136.37 183.822C137.612 183.201 138.855 182.145 140.097 180.654C141.463 179.164 142.146 178.108 142.146 177.487C142.146 176.99 141.774 176.742 141.028 176.742C140.407 176.742 139.538 176.99 138.42 177.487C137.302 177.86 136.122 178.419 134.88 179.164C133.762 179.785 132.706 180.468 131.712 181.213C130.718 181.959 130.035 182.704 129.662 183.449C129.414 183.946 129.29 184.257 129.29 184.381C129.29 184.754 129.973 184.94 131.339 184.94C132.085 184.94 132.954 184.816 133.948 184.567C134.942 184.319 135.749 184.07 136.37 183.822Z" fill="white"/>
<path d="M207.051 192.393C207.051 188.045 207.299 183.636 207.796 179.164C208.417 174.692 209.224 170.407 210.218 166.307L211.709 159.041L207.423 159.413C206.802 159.537 205.995 159.6 205.001 159.6C201.275 159.6 199.411 158.233 199.411 155.5C199.411 154.01 200.094 152.892 201.461 152.146C202.827 151.277 205.125 150.718 208.355 150.47L214.317 149.911L215.249 146.37C215.497 145.377 215.87 144.01 216.367 142.271C216.864 140.532 217.299 138.917 217.671 137.427C218.541 134.197 219.348 132.023 220.094 130.905C220.839 129.787 221.957 129.228 223.447 129.228C226.056 129.228 227.36 130.595 227.36 133.327C227.36 134.57 227.112 135.874 226.615 137.24C226.242 138.358 225.87 139.538 225.497 140.781C225.249 142.023 225.062 142.954 224.938 143.575C224.69 144.197 224.503 144.88 224.379 145.625C224.255 146.246 224.069 146.743 223.82 147.116C223.82 147.24 223.758 147.364 223.634 147.488C223.634 147.488 223.634 147.55 223.634 147.675C223.634 147.923 223.882 148.109 224.379 148.234C225 148.358 226.118 148.42 227.733 148.42C228.851 148.42 230.404 148.358 232.391 148.234C234.379 147.985 236.18 147.737 237.795 147.488C240.031 147.116 241.583 146.929 242.453 146.929C243.447 146.929 244.502 147.426 245.62 148.42C246.862 149.289 247.484 150.221 247.484 151.215C247.484 151.588 247.297 152.146 246.925 152.892C246.303 154.01 244.689 154.879 242.08 155.5C239.596 155.997 235.124 156.494 228.665 156.991C226.926 157.239 225.311 157.488 223.82 157.736C222.454 157.985 221.646 158.233 221.398 158.482C221.149 158.73 220.715 160.034 220.094 162.394C219.472 164.755 218.851 167.487 218.23 170.593C217.733 173.574 217.237 176.68 216.74 179.909C216.243 183.139 215.932 185.685 215.808 187.549V189.412C215.808 191.896 216.056 194.318 216.553 196.679C217.174 199.039 217.92 200.467 218.789 200.964C219.535 201.461 220.218 201.709 220.839 201.709C222.205 201.709 223.882 200.84 225.87 199.101C227.609 197.61 229.099 196.865 230.342 196.865C231.584 196.865 232.577 197.61 233.323 199.101C233.571 199.846 233.695 200.467 233.695 200.964C233.695 202.455 233.261 203.759 232.391 204.877C231.522 205.995 230.404 206.927 229.037 207.672C227.795 208.417 226.429 209.038 224.938 209.535C223.447 209.908 222.143 210.218 221.025 210.467C218.789 210.467 216.802 209.908 215.063 208.79C213.324 207.672 211.833 206.243 210.591 204.504C209.473 202.641 208.603 200.654 207.982 198.542C207.361 196.43 207.051 194.381 207.051 192.393Z" fill="white"/>
<path d="M249.031 210.467C248.037 209.97 247.54 208.666 247.54 206.554V205.25C247.665 202.393 248.037 198.914 248.658 194.815C249.279 190.592 250.025 186.493 250.894 182.518C251.764 178.543 252.633 175.065 253.503 172.083C254.497 169.102 255.242 167.363 255.739 166.866C256.732 166.121 257.664 165.748 258.534 165.748C259.652 165.748 260.583 166.183 261.329 167.053C262.074 167.922 262.446 169.102 262.446 170.593C262.446 171.214 262.384 171.711 262.26 172.083L261.888 174.692L266.546 172.456C268.161 171.587 269.527 170.965 270.645 170.593C271.763 170.22 272.881 170.034 273.999 170.034C275.241 170.034 276.545 170.282 277.912 170.779C279.278 171.152 280.52 171.711 281.638 172.456C282.88 173.201 283.874 174.133 284.619 175.251C285.489 176.245 285.924 177.425 285.924 178.791C285.924 180.033 285.799 180.841 285.551 181.213C285.303 181.586 284.681 181.897 283.688 182.145C283.439 182.269 283.005 182.331 282.383 182.331C281.638 182.331 281.017 182.207 280.52 181.959C278.781 180.717 277.539 179.847 276.794 179.35C276.048 178.853 275.365 178.605 274.744 178.605C274.247 178.605 273.502 178.791 272.508 179.164C266.173 181.151 261.391 188.232 258.161 200.405C256.173 207.982 254.062 211.771 251.826 211.771C251.329 211.771 250.397 211.336 249.031 210.467Z" fill="white"/>
<path d="M297.424 210.467C297.175 210.218 296.989 209.846 296.865 209.349C296.74 208.852 296.678 208.107 296.678 207.113C296.678 206.74 296.74 205.995 296.865 204.877C296.989 203.635 297.113 202.393 297.237 201.15C297.361 199.784 297.486 198.604 297.61 197.61C297.734 196.492 297.796 195.871 297.796 195.747C297.796 195.623 297.858 195.064 297.982 194.07C298.107 192.952 298.293 191.71 298.541 190.343C298.79 188.108 299.163 185.872 299.659 183.636C300.281 181.4 301.212 177.86 302.454 173.015C302.703 171.649 303.2 170.593 303.945 169.848C304.814 169.102 305.746 168.73 306.74 168.73C308.106 168.73 309.038 169.164 309.535 170.034C310.156 170.903 310.466 171.959 310.466 173.201C310.466 174.195 310.342 175.375 310.094 176.742C309.969 177.984 309.597 179.661 308.976 181.772C308.479 183.511 307.92 185.996 307.299 189.226C306.802 192.455 306.429 195.436 306.181 198.169C305.808 201.15 305.436 203.573 305.063 205.436C304.814 207.175 304.504 208.541 304.131 209.535C303.759 210.405 303.262 210.964 302.641 211.212C302.144 211.461 301.523 211.585 300.777 211.585C299.287 211.585 298.169 211.212 297.424 210.467ZM308.23 151.774C307.485 150.78 307.112 149.786 307.112 148.793C307.112 147.054 308.044 145.625 309.907 144.507C311.398 143.762 312.64 143.389 313.634 143.389C314.876 143.389 315.994 144.072 316.988 145.439C317.609 146.432 317.919 147.116 317.919 147.488C317.919 147.861 317.609 148.668 316.988 149.911C315.621 152.271 313.944 153.451 311.957 153.451C310.591 153.451 309.348 152.892 308.23 151.774Z" fill="white"/>
<path d="M351.661 212.703C351.288 212.33 350.915 211.523 350.543 210.28C350.294 209.038 350.108 207.734 349.984 206.368L349.611 201.337L346.63 203.945C342.779 207.423 338.928 209.162 335.078 209.162C331.972 209.162 329.426 208.107 327.438 205.995C325.451 203.759 324.395 200.654 324.271 196.679C324.271 194.691 325.016 191.896 326.506 188.294C327.997 184.567 329.736 181.276 331.724 178.419C335.699 172.705 340.481 169.537 346.071 168.916H347.561C349.425 168.916 351.226 169.164 352.965 169.661C354.704 170.158 355.822 170.841 356.319 171.711C356.443 171.959 356.816 172.332 357.437 172.829C358.182 173.201 359.052 173.636 360.045 174.133C360.915 174.63 361.66 175.189 362.281 175.81C363.027 176.431 363.523 176.99 363.772 177.487V177.86C363.772 179.474 363.089 182.331 361.722 186.431C361.101 187.921 360.604 189.288 360.232 190.53C359.859 191.648 359.548 192.828 359.3 194.07C359.176 195.188 359.052 196.43 358.927 197.797C358.803 199.163 358.741 200.778 358.741 202.641C358.741 208.479 358.368 211.895 357.623 212.889C356.754 213.759 355.76 214.193 354.642 214.193C353.4 214.193 352.406 213.696 351.661 212.703ZM352.592 182.331C352.592 180.841 352.033 179.723 350.915 178.978C349.922 178.108 348.741 177.673 347.375 177.673C345.636 177.673 343.897 178.419 342.158 179.909C340.543 181.276 339.052 182.953 337.686 184.94C336.444 186.927 335.388 189.039 334.519 191.275C333.773 193.387 333.401 195.126 333.401 196.492C333.401 199.101 334.022 200.405 335.264 200.405C336.382 200.405 337.935 199.66 339.922 198.169C341.909 196.554 343.835 194.753 345.698 192.766C347.561 190.654 349.176 188.604 350.543 186.617C351.909 184.629 352.592 183.201 352.592 182.331Z" fill="white"/>
<path d="M378.187 209.535C377.691 209.162 377.194 208.603 376.697 207.858C376.324 206.989 376.076 206.181 375.952 205.436C375.827 205.063 375.765 204.442 375.765 203.573C375.765 202.206 376.076 199.66 376.697 195.933C377.442 192.083 378.374 188.108 379.492 184.008C380.61 179.909 381.852 176.307 383.218 173.201C384.585 169.972 385.951 168.357 387.317 168.357C388.063 168.357 388.994 168.73 390.112 169.475C391.479 170.22 392.162 171.152 392.162 172.27C392.162 173.015 391.976 173.947 391.603 175.065C391.23 176.183 390.733 177.673 390.112 179.537C389.491 181.151 388.87 182.953 388.249 184.94C387.628 186.927 387.069 188.791 386.572 190.53C386.199 192.269 385.827 193.822 385.454 195.188C385.206 196.43 385.082 197.3 385.082 197.797V198.169C385.703 197.548 386.386 196.803 387.131 195.933C387.752 195.312 388.435 194.505 389.181 193.511C389.926 192.517 390.733 191.524 391.603 190.53C393.094 188.667 394.708 186.803 396.447 184.94C398.186 183.077 399.801 181.4 401.292 179.909C402.907 178.294 404.397 176.928 405.764 175.81C407.254 174.692 408.434 173.885 409.304 173.388C409.925 173.139 410.67 172.953 411.54 172.829C412.409 172.58 413.155 172.456 413.776 172.456C417.005 172.456 419.179 173.636 420.297 175.996C421.539 178.232 422.161 182.518 422.161 188.853C422.161 191.337 422.223 193.822 422.347 196.306C422.595 198.79 422.844 200.529 423.092 201.523C423.216 202.144 423.278 202.703 423.278 203.2C423.403 203.573 423.465 203.945 423.465 204.318C423.465 204.939 423.341 205.498 423.092 205.995C422.844 206.368 422.409 206.864 421.788 207.486L419.738 209.535L417.316 207.858C416.571 207.237 415.95 206.616 415.453 205.995C415.08 205.25 414.77 204.318 414.521 203.2C414.273 201.958 414.086 200.405 413.962 198.542C413.838 196.554 413.714 194.07 413.59 191.089C413.59 188.48 413.527 186.244 413.403 184.381C413.279 182.518 413.093 181.586 412.844 181.586C412.472 181.586 411.602 182.207 410.236 183.449C408.993 184.567 407.503 185.996 405.764 187.735C404.025 189.474 402.161 191.461 400.174 193.697C398.311 195.809 396.572 197.921 394.957 200.032C391.851 203.883 389.305 206.678 387.317 208.417C385.454 210.156 383.715 211.026 382.1 211.026C380.858 211.026 379.554 210.529 378.187 209.535Z" fill="white"/>
<path d="M432.804 244.192C432.804 243.322 433.053 242.453 433.55 241.583C434.047 240.59 434.854 240.093 435.972 240.093C437.338 240.093 438.953 240.59 440.816 241.583C443.052 242.701 445.04 243.26 446.779 243.26C449.76 243.26 452.369 242.08 454.605 239.72C456.965 237.36 458.89 234.565 460.381 231.335C461.996 228.106 463.238 224.752 464.107 221.274C464.977 217.92 465.598 215.125 465.971 212.889C466.219 211.274 466.53 209.535 466.902 207.672C467.275 205.809 467.585 204.38 467.834 203.386C467.958 202.765 468.02 202.144 468.02 201.523C468.144 200.778 468.207 200.281 468.207 200.032V199.473C467.958 199.473 467.399 199.846 466.53 200.591C465.784 201.337 464.915 202.206 463.921 203.2C461.809 205.312 459.511 206.927 457.027 208.045C454.543 209.038 452.058 209.535 449.574 209.535C446.096 209.535 443.363 208.541 441.375 206.554C439.636 205.063 438.332 203.324 437.463 201.337C436.717 199.225 436.345 197.051 436.345 194.815C436.345 191.71 437.09 188.604 438.581 185.499C440.071 182.394 441.997 179.599 444.357 177.114C446.841 174.63 449.636 172.642 452.741 171.152C455.847 169.537 458.952 168.73 462.058 168.73C462.803 168.73 463.673 168.854 464.666 169.102C465.536 169.226 466.592 169.599 467.834 170.22C469.076 170.717 470.318 171.338 471.56 172.083C472.927 172.829 474.107 173.636 475.101 174.506C476.094 175.375 476.715 176.245 476.964 177.114C477.212 177.611 477.337 178.605 477.337 180.095C477.337 181.462 477.337 183.077 477.337 184.94C477.337 186.803 477.274 188.791 477.15 190.902C477.15 192.89 477.088 194.877 476.964 196.865C476.964 198.728 476.84 200.529 476.591 202.268C476.467 203.883 476.281 205.187 476.032 206.181C475.411 210.032 474.604 214.318 473.61 219.038C472.74 223.634 471.374 228.044 469.511 232.267C467.772 236.615 465.536 240.465 462.803 243.819C460.07 247.297 456.592 249.72 452.369 251.086C451.251 251.459 450.195 251.769 449.201 252.018C448.332 252.266 447.4 252.39 446.406 252.39C445.413 252.39 444.108 252.142 442.493 251.645C441.003 251.272 439.512 250.713 438.022 249.968C436.655 249.223 435.413 248.353 434.295 247.359C433.301 246.366 432.804 245.31 432.804 244.192ZM464.294 187.176C465.66 184.319 466.343 182.394 466.343 181.4C466.343 180.158 465.784 179.226 464.666 178.605C463.548 177.984 462.492 177.673 461.499 177.673C459.511 177.673 457.524 178.232 455.536 179.35C453.673 180.468 451.934 181.897 450.319 183.636C448.829 185.251 447.586 187.114 446.593 189.226C445.723 191.213 445.288 193.138 445.288 195.002C445.288 196.741 445.661 198.169 446.406 199.287C447.276 200.405 448.456 200.964 449.947 200.964C451.561 200.964 453.114 200.467 454.605 199.473C456.095 198.48 457.462 197.3 458.704 195.933C459.946 194.567 461.002 193.076 461.871 191.461C462.865 189.847 463.673 188.418 464.294 187.176Z" fill="white"/>
<path d="M494.286 208.231C494.286 207.361 494.411 205.871 494.659 203.759C495.032 201.523 495.467 198.977 495.963 196.12C496.46 193.138 497.019 189.971 497.64 186.617C498.261 183.139 498.945 179.847 499.69 176.742C500.435 173.139 501.181 169.661 501.926 166.307C502.671 162.829 503.168 160.469 503.416 159.227C504.286 154.631 505.155 150.221 506.025 145.998C506.895 141.65 507.826 137.054 508.82 132.21C509.441 129.353 509.938 126.744 510.311 124.384C510.683 121.899 510.87 120.285 510.87 119.539C510.87 116.061 512.422 114.322 515.528 114.322C516.521 114.322 517.515 114.819 518.509 115.813C519.627 116.682 520.186 117.614 520.186 118.608C520.186 119.353 519.627 122.272 518.509 127.365C517.515 132.458 516.087 139.414 514.223 148.234C513.602 151.463 512.919 154.693 512.174 157.923C511.553 161.152 511.118 163.45 510.87 164.817C510.621 166.183 510.248 168.295 509.752 171.152C509.255 173.885 508.696 176.555 508.075 179.164C507.454 181.897 506.832 184.692 506.211 187.549C505.714 190.406 505.218 193.076 504.721 195.561C504.348 198.045 504.038 200.281 503.789 202.268C503.541 204.132 503.416 205.56 503.416 206.554C503.416 207.051 503.23 207.672 502.857 208.417C502.609 209.162 502.236 209.908 501.74 210.653C501.367 211.398 500.87 212.019 500.249 212.516C499.752 213.013 499.193 213.262 498.572 213.262C497.702 213.262 496.771 212.641 495.777 211.398C494.783 210.156 494.286 209.1 494.286 208.231Z" fill="white"/>
<path d="M523.295 194.07C523.295 191.213 523.978 188.294 525.345 185.313C526.835 182.207 528.699 179.412 530.935 176.928C533.295 174.319 535.903 172.208 538.76 170.593C541.617 168.854 544.474 167.984 547.331 167.984C550.064 167.984 552.424 168.792 554.412 170.407C556.523 172.021 557.579 174.257 557.579 177.114C557.579 179.474 556.958 181.71 555.716 183.822C554.474 185.81 552.859 187.549 550.872 189.039C549.008 190.53 546.897 191.71 544.536 192.579C542.176 193.449 539.94 193.884 537.829 193.884C536.711 193.884 535.841 193.822 535.22 193.697C534.599 193.573 533.854 193.511 532.984 193.511C532.115 193.511 531.68 193.822 531.68 194.443C531.68 194.691 531.742 195.064 531.866 195.561C531.99 195.933 532.177 196.43 532.425 197.051C532.922 198.169 533.916 199.225 535.406 200.219C537.021 201.213 538.636 201.709 540.251 201.709C540.748 201.709 541.555 201.585 542.673 201.337C543.791 201.088 544.847 200.778 545.841 200.405C547.207 199.908 548.573 199.66 549.94 199.66C552.424 199.66 553.853 200.716 554.225 202.827C554.225 203.076 554.225 203.262 554.225 203.386C554.35 203.386 554.412 203.511 554.412 203.759C554.412 204.877 553.853 205.871 552.735 206.74C551.617 207.486 550.25 208.107 548.636 208.603C547.021 209.1 545.406 209.473 543.791 209.721C542.301 209.846 541.058 209.908 540.065 209.908C535.096 209.908 531.059 208.541 527.953 205.809C524.848 202.952 523.295 199.039 523.295 194.07ZM543.232 183.822C544.474 183.201 545.717 182.145 546.959 180.654C548.325 179.164 549.008 178.108 549.008 177.487C549.008 176.99 548.636 176.742 547.89 176.742C547.269 176.742 546.4 176.99 545.282 177.487C544.164 177.86 542.984 178.419 541.742 179.164C540.624 179.785 539.568 180.468 538.574 181.213C537.58 181.959 536.897 182.704 536.524 183.449C536.276 183.946 536.152 184.257 536.152 184.381C536.152 184.754 536.835 184.94 538.201 184.94C538.947 184.94 539.816 184.816 540.81 184.567C541.804 184.319 542.611 184.07 543.232 183.822Z" fill="white"/>
<path d="M639.998 213.634C638.383 213.137 637.576 210.591 637.576 205.995V202.268L634.781 204.318C632.669 206.057 630.496 207.299 628.26 208.045C626.148 208.79 624.098 209.162 622.111 209.162C618.384 209.162 615.279 207.92 612.795 205.436C610.31 202.952 609.068 199.473 609.068 195.002V194.629C609.068 191.027 609.689 187.673 610.931 184.567C612.174 181.462 613.85 178.791 615.962 176.555C618.198 174.319 620.807 172.58 623.788 171.338C626.769 169.972 630.061 169.289 633.663 169.289C636.644 169.289 638.88 169.661 640.371 170.407C641.24 170.903 641.986 171.152 642.607 171.152C643.725 171.152 644.284 170.158 644.284 168.171C644.284 167.798 644.408 166.742 644.656 165.003C645.029 163.264 645.464 161.401 645.961 159.413C649.439 143.638 651.488 134.011 652.11 130.533C652.606 127.8 653.041 126.061 653.414 125.315C653.786 124.57 654.594 123.949 655.836 123.452C656.83 123.204 657.389 123.08 657.513 123.08C658.134 123.08 659.004 123.576 660.122 124.57C661.24 125.44 661.799 126.185 661.799 126.806C661.799 127.054 661.55 128.235 661.053 130.346C660.681 132.334 660.184 134.694 659.563 137.427C659.314 138.669 658.942 140.346 658.445 142.457C658.072 144.445 657.637 146.619 657.14 148.979C656.643 151.339 656.147 153.761 655.65 156.246C655.153 158.73 654.656 161.09 654.159 163.326C653.165 167.798 652.172 172.27 651.178 176.742C650.308 181.213 649.687 184.381 649.315 186.244C648.818 188.108 648.321 190.654 647.824 193.884C647.327 196.989 646.955 199.846 646.706 202.455C646.209 206.927 645.65 209.97 645.029 211.585C644.532 213.2 643.601 214.007 642.234 214.007C641.986 214.007 641.24 213.883 639.998 213.634ZM639.812 181.4V181.027C639.439 180.033 638.57 179.226 637.203 178.605C635.837 177.984 634.284 177.673 632.545 177.673C632.173 177.673 631.8 177.735 631.427 177.86C631.179 177.86 630.868 177.86 630.496 177.86C628.757 178.108 627.08 178.791 625.465 179.909C623.974 181.027 622.608 182.394 621.366 184.008C620.248 185.499 619.316 187.176 618.571 189.039C617.95 190.778 617.639 192.517 617.639 194.256C617.639 196.12 618.074 197.672 618.943 198.914C619.689 200.157 620.745 200.778 622.111 200.778C623.85 200.778 625.775 200.032 627.887 198.542C629.999 197.051 631.924 195.312 633.663 193.325C635.402 191.213 636.831 189.039 637.949 186.803C639.191 184.567 639.812 182.766 639.812 181.4Z" fill="white"/>
<path d="M662.598 115.813C662.598 114.571 663.405 112.707 665.02 110.223C666.635 107.366 667.442 105.254 667.442 103.888C667.442 103.018 667.194 102.397 666.697 102.025C666.076 101.652 665.765 101.031 665.765 100.161C665.765 98.9191 666.138 97.8012 666.883 96.8074C667.753 95.6895 668.871 95.1305 670.237 95.1305C672.473 95.1305 674.212 96.2485 675.454 98.4844C676.075 99.975 676.386 101.404 676.386 102.77C676.386 104.633 676.075 106.559 675.454 108.546C674.833 110.409 674.026 112.21 673.032 113.95C672.038 115.564 670.92 116.931 669.678 118.049C668.56 119.042 667.442 119.539 666.324 119.539C665.331 119.539 664.461 119.167 663.716 118.421C662.97 117.676 662.598 116.807 662.598 115.813Z" fill="white"/>
<path d="M724.685 187.549C724.685 190.778 723.94 193.822 722.449 196.679C721.083 199.536 719.22 202.02 716.86 204.132C714.499 206.243 711.767 207.92 708.661 209.162C705.68 210.405 702.637 211.026 699.531 211.026C694.314 211.026 690.215 209.535 687.234 206.554C684.377 203.448 682.948 199.349 682.948 194.256V193.325C683.197 190.343 683.88 187.362 684.998 184.381C686.24 181.4 687.793 178.667 689.656 176.183C691.643 173.698 694.003 171.711 696.736 170.22C699.469 168.605 702.388 167.798 705.494 167.798C706.115 167.798 706.674 167.86 707.171 167.984C707.792 167.984 708.413 168.046 709.034 168.171C713.506 169.164 717.232 171.524 720.213 175.251C723.195 178.978 724.685 183.077 724.685 187.549ZM715.555 187.735C715.555 185.499 714.872 183.325 713.506 181.213C711.394 178.356 708.661 176.928 705.307 176.928C703.32 176.928 701.457 177.487 699.717 178.605C698.103 179.599 696.674 180.965 695.432 182.704C694.314 184.319 693.445 186.12 692.823 188.108C692.202 189.971 691.892 191.834 691.892 193.697C691.892 196.182 692.513 198.356 693.755 200.219C694.997 202.082 697.047 203.014 699.904 203.014C701.891 203.014 703.817 202.579 705.68 201.709C707.543 200.84 709.22 199.722 710.711 198.356C712.201 196.865 713.381 195.25 714.251 193.511C715.12 191.648 715.555 189.722 715.555 187.735Z" fill="white"/>
<path d="M739.048 210.467C738.055 209.97 737.558 208.666 737.558 206.554V205.25C737.682 202.393 738.055 198.914 738.676 194.815C739.297 190.592 740.042 186.493 740.912 182.518C741.781 178.543 742.651 175.065 743.52 172.083C744.514 169.102 745.259 167.363 745.756 166.866C746.75 166.121 747.682 165.748 748.551 165.748C749.669 165.748 750.601 166.183 751.346 167.053C752.091 167.922 752.464 169.102 752.464 170.593C752.464 171.214 752.402 171.711 752.278 172.083L751.905 174.692L756.563 172.456C758.178 171.587 759.544 170.965 760.662 170.593C761.78 170.22 762.898 170.034 764.016 170.034C765.258 170.034 766.563 170.282 767.929 170.779C769.295 171.152 770.538 171.711 771.656 172.456C772.898 173.201 773.892 174.133 774.637 175.251C775.506 176.245 775.941 177.425 775.941 178.791C775.941 180.033 775.817 180.841 775.568 181.213C775.32 181.586 774.699 181.897 773.705 182.145C773.457 182.269 773.022 182.331 772.401 182.331C771.656 182.331 771.035 182.207 770.538 181.959C768.799 180.717 767.556 179.847 766.811 179.35C766.066 178.853 765.383 178.605 764.762 178.605C764.265 178.605 763.519 178.791 762.526 179.164C756.19 181.151 751.408 188.232 748.178 200.405C746.191 207.982 744.079 211.771 741.843 211.771C741.346 211.771 740.415 211.336 739.048 210.467Z" fill="white"/>
<path d="M857.44 213.634C855.825 213.137 855.018 210.591 855.018 205.995V202.268L852.223 204.318C850.111 206.057 847.938 207.299 845.702 208.045C843.59 208.79 841.54 209.162 839.553 209.162C835.826 209.162 832.721 207.92 830.236 205.436C827.752 202.952 826.51 199.473 826.51 195.002V194.629C826.51 191.027 827.131 187.673 828.373 184.567C829.615 181.462 831.292 178.791 833.404 176.555C835.64 174.319 838.249 172.58 841.23 171.338C844.211 169.972 847.503 169.289 851.105 169.289C854.086 169.289 856.322 169.661 857.813 170.407C858.682 170.903 859.428 171.152 860.049 171.152C861.167 171.152 861.726 170.158 861.726 168.171C861.726 167.798 861.85 166.742 862.098 165.003C862.471 163.264 862.906 161.401 863.403 159.413C866.881 143.638 868.93 134.011 869.551 130.533C870.048 127.8 870.483 126.061 870.856 125.315C871.228 124.57 872.036 123.949 873.278 123.452C874.272 123.204 874.831 123.08 874.955 123.08C875.576 123.08 876.445 123.576 877.563 124.57C878.681 125.44 879.24 126.185 879.24 126.806C879.24 127.054 878.992 128.235 878.495 130.346C878.122 132.334 877.626 134.694 877.004 137.427C876.756 138.669 876.383 140.346 875.887 142.457C875.514 144.445 875.079 146.619 874.582 148.979C874.085 151.339 873.588 153.761 873.092 156.246C872.595 158.73 872.098 161.09 871.601 163.326C870.607 167.798 869.614 172.27 868.62 176.742C867.75 181.213 867.129 184.381 866.757 186.244C866.26 188.108 865.763 190.654 865.266 193.884C864.769 196.989 864.396 199.846 864.148 202.455C863.651 206.927 863.092 209.97 862.471 211.585C861.974 213.2 861.042 214.007 859.676 214.007C859.428 214.007 858.682 213.883 857.44 213.634ZM857.254 181.4V181.027C856.881 180.033 856.012 179.226 854.645 178.605C853.279 177.984 851.726 177.673 849.987 177.673C849.614 177.673 849.242 177.735 848.869 177.86C848.621 177.86 848.31 177.86 847.938 177.86C846.198 178.108 844.521 178.791 842.907 179.909C841.416 181.027 840.05 182.394 838.807 184.008C837.69 185.499 836.758 187.176 836.013 189.039C835.391 190.778 835.081 192.517 835.081 194.256C835.081 196.12 835.516 197.672 836.385 198.914C837.131 200.157 838.186 200.778 839.553 200.778C841.292 200.778 843.217 200.032 845.329 198.542C847.441 197.051 849.366 195.312 851.105 193.325C852.844 191.213 854.273 189.039 855.391 186.803C856.633 184.567 857.254 182.766 857.254 181.4Z" fill="white"/>
<path d="M883.393 194.07C883.393 191.213 884.077 188.294 885.443 185.313C886.934 182.207 888.797 179.412 891.033 176.928C893.393 174.319 896.002 172.208 898.859 170.593C901.716 168.854 904.573 167.984 907.43 167.984C910.162 167.984 912.523 168.792 914.51 170.407C916.622 172.021 917.678 174.257 917.678 177.114C917.678 179.474 917.056 181.71 915.814 183.822C914.572 185.81 912.957 187.549 910.97 189.039C909.107 190.53 906.995 191.71 904.635 192.579C902.275 193.449 900.039 193.884 897.927 193.884C896.809 193.884 895.939 193.822 895.318 193.697C894.697 193.573 893.952 193.511 893.082 193.511C892.213 193.511 891.778 193.822 891.778 194.443C891.778 194.691 891.84 195.064 891.964 195.561C892.089 195.933 892.275 196.43 892.523 197.051C893.02 198.169 894.014 199.225 895.505 200.219C897.119 201.213 898.734 201.709 900.349 201.709C900.846 201.709 901.653 201.585 902.771 201.337C903.889 201.088 904.945 200.778 905.939 200.405C907.305 199.908 908.672 199.66 910.038 199.66C912.523 199.66 913.951 200.716 914.324 202.827C914.324 203.076 914.324 203.262 914.324 203.386C914.448 203.386 914.51 203.511 914.51 203.759C914.51 204.877 913.951 205.871 912.833 206.74C911.715 207.486 910.349 208.107 908.734 208.603C907.119 209.1 905.504 209.473 903.889 209.721C902.399 209.846 901.157 209.908 900.163 209.908C895.194 209.908 891.157 208.541 888.052 205.809C884.946 202.952 883.393 199.039 883.393 194.07ZM903.33 183.822C904.573 183.201 905.815 182.145 907.057 180.654C908.423 179.164 909.107 178.108 909.107 177.487C909.107 176.99 908.734 176.742 907.989 176.742C907.367 176.742 906.498 176.99 905.38 177.487C904.262 177.86 903.082 178.419 901.84 179.164C900.722 179.785 899.666 180.468 898.672 181.213C897.679 181.959 896.995 182.704 896.623 183.449C896.374 183.946 896.25 184.257 896.25 184.381C896.25 184.754 896.933 184.94 898.3 184.94C899.045 184.94 899.914 184.816 900.908 184.567C901.902 184.319 902.709 184.07 903.33 183.822Z" fill="white"/>
<path d="M970.657 208.231C970.657 207.361 970.781 205.871 971.03 203.759C971.402 201.523 971.837 198.977 972.334 196.12C972.831 193.138 973.39 189.971 974.011 186.617C974.632 183.139 975.315 179.847 976.06 176.742C976.806 173.139 977.551 169.661 978.296 166.307C979.042 162.829 979.539 160.469 979.787 159.227C980.656 154.631 981.526 150.221 982.396 145.998C983.265 141.65 984.197 137.054 985.19 132.21C985.811 129.353 986.308 126.744 986.681 124.384C987.054 121.899 987.24 120.285 987.24 119.539C987.24 116.061 988.793 114.322 991.898 114.322C992.892 114.322 993.886 114.819 994.879 115.813C995.997 116.682 996.556 117.614 996.556 118.608C996.556 119.353 995.997 122.272 994.879 127.365C993.886 132.458 992.457 139.414 990.594 148.234C989.973 151.463 989.29 154.693 988.544 157.923C987.923 161.152 987.488 163.45 987.24 164.817C986.992 166.183 986.619 168.295 986.122 171.152C985.625 173.885 985.066 176.555 984.445 179.164C983.824 181.897 983.203 184.692 982.582 187.549C982.085 190.406 981.588 193.076 981.091 195.561C980.719 198.045 980.408 200.281 980.16 202.268C979.911 204.132 979.787 205.56 979.787 206.554C979.787 207.051 979.601 207.672 979.228 208.417C978.98 209.162 978.607 209.908 978.11 210.653C977.737 211.398 977.241 212.019 976.619 212.516C976.123 213.013 975.564 213.262 974.942 213.262C974.073 213.262 973.141 212.641 972.148 211.398C971.154 210.156 970.657 209.1 970.657 208.231Z" fill="white"/>
<path d="M1028.73 212.703C1028.36 212.33 1027.99 211.523 1027.61 210.28C1027.37 209.038 1027.18 207.734 1027.06 206.368L1026.68 201.337L1023.7 203.945C1019.85 207.423 1016 209.162 1012.15 209.162C1009.04 209.162 1006.5 208.107 1004.51 205.995C1002.52 203.759 1001.47 200.654 1001.34 196.679C1001.34 194.691 1002.09 191.896 1003.58 188.294C1005.07 184.567 1006.81 181.276 1008.8 178.419C1012.77 172.705 1017.55 169.537 1023.14 168.916H1024.63C1026.5 168.916 1028.3 169.164 1030.04 169.661C1031.78 170.158 1032.89 170.841 1033.39 171.711C1033.52 171.959 1033.89 172.332 1034.51 172.829C1035.25 173.201 1036.12 173.636 1037.12 174.133C1037.99 174.63 1038.73 175.189 1039.35 175.81C1040.1 176.431 1040.6 176.99 1040.84 177.487V177.86C1040.84 179.474 1040.16 182.331 1038.79 186.431C1038.17 187.921 1037.68 189.288 1037.3 190.53C1036.93 191.648 1036.62 192.828 1036.37 194.07C1036.25 195.188 1036.12 196.43 1036 197.797C1035.88 199.163 1035.81 200.778 1035.81 202.641C1035.81 208.479 1035.44 211.895 1034.7 212.889C1033.83 213.759 1032.83 214.193 1031.71 214.193C1030.47 214.193 1029.48 213.696 1028.73 212.703ZM1029.66 182.331C1029.66 180.841 1029.11 179.723 1027.99 178.978C1026.99 178.108 1025.81 177.673 1024.45 177.673C1022.71 177.673 1020.97 178.419 1019.23 179.909C1017.62 181.276 1016.12 182.953 1014.76 184.94C1013.52 186.927 1012.46 189.039 1011.59 191.275C1010.85 193.387 1010.47 195.126 1010.47 196.492C1010.47 199.101 1011.09 200.405 1012.34 200.405C1013.45 200.405 1015.01 199.66 1016.99 198.169C1018.98 196.554 1020.91 194.753 1022.77 192.766C1024.63 190.654 1026.25 188.604 1027.61 186.617C1028.98 184.629 1029.66 183.201 1029.66 182.331Z" fill="white"/>
<path d="M94.7566 381.702C97.5101 381.412 100.191 381.05 102.8 380.615C105.553 380.18 108.379 379.818 111.278 379.528C110.843 385.615 110.48 391.701 110.191 397.788C109.901 403.875 109.683 409.961 109.539 416.048C109.249 416.193 108.959 416.338 108.669 416.483L106.713 417.135C105.408 417.57 97.3652 417.787 82.5832 417.787C67.6564 417.787 58.4539 417.28 54.9758 416.265C51.9325 415.541 48.4544 414.237 44.5415 412.353C40.7736 410.469 36.9332 408.295 33.0203 405.831C29.1075 403.223 25.4844 400.541 22.1513 397.788C18.8181 394.89 16.2095 392.136 14.3255 389.528C10.2678 383.586 7.00704 376.774 4.54339 369.094C2.22466 361.413 0.775448 354.094 0.195765 347.138C-0.238997 337.718 0.0508444 330.255 1.06529 324.748C1.93481 319.676 3.09418 315.111 4.54339 311.053C5.9926 306.995 7.80411 303.227 9.97792 299.749C12.1517 296.271 14.6878 292.938 17.5863 289.75C20.4847 286.561 23.8179 283.373 27.5858 280.185C31.9334 276.707 36.0637 273.881 39.9765 271.707C42.0054 270.692 44.3966 269.75 47.1501 268.881C50.0485 268.011 53.3092 267.214 56.9323 266.49C60.5553 265.765 63.816 265.258 66.7144 264.968C69.6128 264.678 72.0765 264.606 74.1054 264.751C75.2647 264.751 76.3516 264.823 77.3661 264.968C78.3805 264.968 79.4674 265.041 80.6268 265.185C80.6268 265.91 80.5544 267.142 80.4094 268.881C80.4094 270.475 80.337 272.142 80.192 273.881C80.0471 275.91 79.9022 278.156 79.7573 280.62L77.5835 281.054C75.8444 281.344 73.7431 281.779 71.2794 282.359C68.8158 283.083 66.642 283.735 64.758 284.315C62.874 284.75 61.3523 285.329 60.193 286.054C58.309 286.924 55.9178 288.518 53.0194 290.836C50.121 293.01 47.1501 295.474 44.1068 298.227C41.0634 300.981 38.165 303.807 35.4115 306.705C32.8029 309.459 30.8465 311.85 29.5422 313.879C28.5278 315.473 27.6583 317.429 26.9337 319.748C26.209 322.067 25.6294 324.458 25.1946 326.922C24.9048 329.385 24.6874 331.849 24.5425 334.313C24.3975 336.631 24.3251 338.733 24.3251 340.617C24.3251 348.153 25.8467 355.109 28.8901 361.485C31.6436 367.717 34.0348 371.775 36.0637 373.659C37.8027 374.963 40.049 376.195 42.8025 377.354C45.7009 378.514 48.6718 379.528 51.7151 380.398C54.7584 381.267 57.8018 381.992 60.8451 382.571C63.8885 383.151 66.497 383.441 68.6708 383.441C71.8591 383.586 75.627 383.513 79.9747 383.223C84.3223 382.934 89.2496 382.426 94.7566 381.702Z" fill="white"/>
<path d="M221.69 308.662C222.995 316.777 223.139 327.936 222.125 342.138C221.69 347.5 220.893 353.877 219.734 361.268C218.574 368.514 216.763 375.688 214.299 382.789C211.836 389.89 208.575 396.266 204.517 401.918C200.604 407.57 195.604 411.411 189.518 413.439C184.735 415.034 179.881 415.831 174.953 415.831C169.881 415.831 165.606 415.396 162.128 414.526C160.389 414.237 158.722 413.874 157.128 413.439C155.679 412.86 154.302 412.353 152.998 411.918C150.389 410.903 147.853 409.454 145.389 407.57C142.636 405.541 139.955 403.005 137.346 399.962C134.883 396.918 132.564 393.658 130.39 390.18C128.216 386.702 126.332 383.151 124.738 379.528C123.144 375.76 121.985 372.209 121.26 368.876C119.956 363.224 119.376 353.66 119.521 340.182C119.811 333.805 120.101 328.298 120.391 323.661C120.825 318.879 121.622 314.459 122.782 310.401C124.086 306.198 125.898 302.068 128.216 298.01C130.535 293.952 133.723 289.387 137.781 284.315C145.172 274.895 150.244 269.533 152.998 268.229C155.896 266.78 159.012 265.765 162.345 265.185C165.678 264.461 168.939 263.954 172.127 263.664C178.359 263.664 184.663 264.243 191.039 265.403C197.416 266.562 202.923 269.461 207.56 274.098C209.299 275.837 210.894 278.156 212.343 281.054C213.937 283.953 215.314 287.069 216.473 290.402C217.777 293.735 218.864 297.068 219.734 300.401C220.603 303.589 221.255 306.343 221.69 308.662ZM200.822 348.442C201.546 342.791 201.981 338.008 202.126 334.095C202.416 330.182 202.488 327.067 202.343 324.748C202.198 322.574 201.981 320.473 201.691 318.444C201.401 316.415 201.111 314.386 200.822 312.357C199.228 305.256 196.764 300.184 193.431 297.141C190.097 293.952 184.88 292.213 177.779 291.923C173.577 291.489 169.301 292.141 164.954 293.88C163.505 294.459 161.693 295.474 159.519 296.923C157.345 298.372 155.172 300.039 152.998 301.923C150.969 303.662 149.157 305.546 147.563 307.575C146.114 309.604 145.245 311.415 144.955 313.009C144.665 314.169 144.447 316.56 144.303 320.183C144.303 323.661 144.375 328.371 144.52 334.313C144.52 337.646 144.592 341.051 144.737 344.53C144.882 348.008 145.244 351.413 145.824 354.747C146.404 358.08 147.273 361.34 148.433 364.529C149.592 367.717 151.186 370.76 153.215 373.659C156.258 377.572 157.78 379.89 157.78 380.615C157.78 381.484 160.171 382.934 164.954 384.963C167.417 386.122 169.736 386.991 171.91 387.571C174.084 388.006 176.185 388.368 178.214 388.658C182.417 388.803 185.532 387.861 187.561 385.832C189.59 383.803 191.329 381.267 192.779 378.224C194.373 375.035 195.677 371.702 196.691 368.224C197.851 364.746 198.72 361.268 199.3 357.79C200.025 354.312 200.532 351.196 200.822 348.442Z" fill="white"/>
<path d="M330.819 381.702C333.572 381.412 336.254 381.05 338.862 380.615C341.616 380.18 344.442 379.818 347.34 379.528C346.905 385.615 346.543 391.701 346.253 397.788C345.963 403.875 345.746 409.961 345.601 416.048C345.311 416.193 345.021 416.338 344.731 416.483L342.775 417.135C341.471 417.57 333.428 417.787 318.646 417.787C303.719 417.787 294.516 417.28 291.038 416.265C287.995 415.541 284.517 414.237 280.604 412.353C276.836 410.469 272.996 408.295 269.083 405.831C265.17 403.223 261.547 400.541 258.214 397.788C254.88 394.89 252.272 392.136 250.388 389.528C246.33 383.586 243.069 376.774 240.606 369.094C238.287 361.413 236.838 354.094 236.258 347.138C235.823 337.718 236.113 330.255 237.128 324.748C237.997 319.676 239.157 315.111 240.606 311.053C242.055 306.995 243.866 303.227 246.04 299.749C248.214 296.271 250.75 292.938 253.649 289.75C256.547 286.561 259.88 283.373 263.648 280.185C267.996 276.707 272.126 273.881 276.039 271.707C278.068 270.692 280.459 269.75 283.212 268.881C286.111 268.011 289.372 267.214 292.995 266.49C296.618 265.765 299.878 265.258 302.777 264.968C305.675 264.678 308.139 264.606 310.168 264.751C311.327 264.751 312.414 264.823 313.428 264.968C314.443 264.968 315.53 265.041 316.689 265.185C316.689 265.91 316.617 267.142 316.472 268.881C316.472 270.475 316.399 272.142 316.254 273.881C316.109 275.91 315.965 278.156 315.82 280.62L313.646 281.054C311.907 281.344 309.805 281.779 307.342 282.359C304.878 283.083 302.704 283.735 300.82 284.315C298.936 284.75 297.415 285.329 296.255 286.054C294.371 286.924 291.98 288.518 289.082 290.836C286.183 293.01 283.212 295.474 280.169 298.227C277.126 300.981 274.227 303.807 271.474 306.705C268.865 309.459 266.909 311.85 265.605 313.879C264.59 315.473 263.721 317.429 262.996 319.748C262.271 322.067 261.692 324.458 261.257 326.922C260.967 329.385 260.75 331.849 260.605 334.313C260.46 336.631 260.387 338.733 260.387 340.617C260.387 348.153 261.909 355.109 264.952 361.485C267.706 367.717 270.097 371.775 272.126 373.659C273.865 374.963 276.111 376.195 278.865 377.354C281.763 378.514 284.734 379.528 287.777 380.398C290.821 381.267 293.864 381.992 296.908 382.571C299.951 383.151 302.559 383.441 304.733 383.441C307.921 383.586 311.689 383.513 316.037 383.223C320.385 382.934 325.312 382.426 330.819 381.702Z" fill="white"/>
<path d="M457.753 308.662C459.057 316.777 459.202 327.936 458.187 342.138C457.753 347.5 456.956 353.877 455.796 361.268C454.637 368.514 452.825 375.688 450.362 382.789C447.898 389.89 444.637 396.266 440.579 401.918C436.667 407.57 431.667 411.411 425.58 413.439C420.798 415.034 415.943 415.831 411.016 415.831C405.943 415.831 401.668 415.396 398.19 414.526C396.451 414.237 394.785 413.874 393.19 413.439C391.741 412.86 390.364 412.353 389.06 411.918C386.452 410.903 383.915 409.454 381.452 407.57C378.698 405.541 376.017 403.005 373.409 399.962C370.945 396.918 368.626 393.658 366.453 390.18C364.279 386.702 362.395 383.151 360.801 379.528C359.206 375.76 358.047 372.209 357.323 368.876C356.018 363.224 355.439 353.66 355.583 340.182C355.873 333.805 356.163 328.298 356.453 323.661C356.888 318.879 357.685 314.459 358.844 310.401C360.148 306.198 361.96 302.068 364.279 298.01C366.597 293.952 369.786 289.387 373.843 284.315C381.234 274.895 386.307 269.533 389.06 268.229C391.959 266.78 395.074 265.765 398.408 265.185C401.741 264.461 405.001 263.954 408.19 263.664C414.421 263.664 420.725 264.243 427.102 265.403C433.478 266.562 438.985 269.461 443.623 274.098C445.362 275.837 446.956 278.156 448.405 281.054C449.999 283.953 451.376 287.069 452.535 290.402C453.84 293.735 454.927 297.068 455.796 300.401C456.666 303.589 457.318 306.343 457.753 308.662ZM436.884 348.442C437.609 342.791 438.043 338.008 438.188 334.095C438.478 330.182 438.551 327.067 438.406 324.748C438.261 322.574 438.043 320.473 437.754 318.444C437.464 316.415 437.174 314.386 436.884 312.357C435.29 305.256 432.826 300.184 429.493 297.141C426.16 293.952 420.943 292.213 413.842 291.923C409.639 291.489 405.364 292.141 401.016 293.88C399.567 294.459 397.755 295.474 395.582 296.923C393.408 298.372 391.234 300.039 389.06 301.923C387.031 303.662 385.22 305.546 383.626 307.575C382.176 309.604 381.307 311.415 381.017 313.009C380.727 314.169 380.51 316.56 380.365 320.183C380.365 323.661 380.437 328.371 380.582 334.313C380.582 337.646 380.655 341.051 380.8 344.53C380.945 348.008 381.307 351.413 381.887 354.747C382.466 358.08 383.336 361.34 384.495 364.529C385.655 367.717 387.249 370.76 389.278 373.659C392.321 377.572 393.843 379.89 393.843 380.615C393.843 381.484 396.234 382.934 401.016 384.963C403.48 386.122 405.798 386.991 407.972 387.571C410.146 388.006 412.247 388.368 414.276 388.658C418.479 388.803 421.595 387.861 423.624 385.832C425.653 383.803 427.392 381.267 428.841 378.224C430.435 375.035 431.739 371.702 432.754 368.224C433.913 364.746 434.783 361.268 435.362 357.79C436.087 354.312 436.594 351.196 436.884 348.442Z" fill="white"/>
<path d="M584.272 265.185C583.547 268.519 582.895 271.924 582.315 275.402C581.736 278.88 581.084 282.286 580.359 285.619C577.75 299.677 576.519 312.43 576.664 323.878C576.953 329.82 577.026 335.472 576.881 340.834C576.881 346.051 576.736 350.979 576.446 355.616C575.866 364.891 576.084 373.876 577.098 382.571C577.388 384.6 577.533 387.136 577.533 390.18C577.533 393.078 577.388 395.904 577.098 398.658C576.953 401.701 576.736 404.889 576.446 408.222L556.012 407.135C554.418 405.106 552.679 402.715 550.795 399.962C549.201 397.643 547.317 394.817 545.143 391.484C542.969 388.006 540.651 383.948 538.187 379.311C532.535 368.876 527.318 358.442 522.536 348.008C517.898 337.428 514.565 326.27 512.536 314.531C511.667 310.763 510.797 307.647 509.927 305.184C509.203 302.72 508.043 299.822 506.449 296.488V318.661C506.449 326.052 506.304 334.458 506.015 343.877C505.87 353.297 505.507 363.877 504.928 375.615C504.348 387.354 503.913 396.556 503.623 403.223C503.334 409.889 503.116 413.512 502.971 414.092C502.102 414.092 501.015 414.092 499.711 414.092C498.551 414.092 497.174 414.164 495.58 414.309C494.131 414.309 492.392 414.381 490.363 414.526C488.334 414.816 486.305 415.034 484.276 415.178C482.393 415.178 480.436 415.251 478.407 415.396C478.117 411.193 477.828 407.063 477.538 403.005C477.248 398.947 476.958 394.817 476.668 390.614C476.088 382.209 475.799 374.166 475.799 366.485C475.799 358.804 475.944 351.413 476.233 344.312C477.103 330.11 477.828 322.719 478.407 322.139C478.987 321.56 479.349 318.516 479.494 313.009C479.639 310.111 479.929 307.285 480.364 304.531C480.943 301.633 481.595 298.662 482.32 295.619C483.045 292.72 483.697 289.677 484.276 286.489C485.001 283.156 485.581 279.678 486.016 276.055C486.305 274.171 486.523 272.576 486.668 271.272C486.813 269.823 486.958 268.591 487.102 267.577C487.247 266.272 487.392 265.185 487.537 264.316L508.188 263.881C508.623 264.606 509.058 265.33 509.493 266.055C509.927 266.78 510.435 267.722 511.014 268.881C511.594 269.895 512.246 271.055 512.971 272.359C515.724 278.156 519.275 283.518 523.623 288.445C527.97 293.662 534.564 304.531 543.404 321.052C545.578 325.11 547.679 329.168 549.708 333.226C551.882 337.284 554.056 341.414 556.23 345.617C556.375 345.182 556.447 343.95 556.447 341.921C556.592 339.892 556.737 337.501 556.882 334.747C557.027 331.849 557.099 328.806 557.099 325.617C557.244 322.429 557.317 319.531 557.317 316.922C557.317 313.589 557.317 310.691 557.317 308.227C557.317 305.618 557.317 303.01 557.317 300.401C557.317 297.648 557.317 294.749 557.317 291.706C557.461 288.518 557.534 284.677 557.534 280.185C557.534 277.721 557.751 275.113 558.186 272.359C558.766 269.461 558.911 266.78 558.621 264.316L584.272 265.185Z" fill="white"/>
<path d="M709.096 265.185C708.372 268.519 707.719 271.924 707.14 275.402C706.56 278.88 705.908 282.286 705.183 285.619C702.575 299.677 701.343 312.43 701.488 323.878C701.778 329.82 701.85 335.472 701.705 340.834C701.705 346.051 701.56 350.979 701.271 355.616C700.691 364.891 700.908 373.876 701.923 382.571C702.212 384.6 702.357 387.136 702.357 390.18C702.357 393.078 702.212 395.904 701.923 398.658C701.778 401.701 701.56 404.889 701.271 408.222L680.837 407.135C679.243 405.106 677.504 402.715 675.62 399.962C674.025 397.643 672.141 394.817 669.968 391.484C667.794 388.006 665.475 383.948 663.011 379.311C657.359 368.876 652.142 358.442 647.36 348.008C642.722 337.428 639.389 326.27 637.36 314.531C636.491 310.763 635.621 307.647 634.752 305.184C634.027 302.72 632.868 299.822 631.274 296.488V318.661C631.274 326.052 631.129 334.458 630.839 343.877C630.694 353.297 630.332 363.877 629.752 375.615C629.172 387.354 628.738 396.556 628.448 403.223C628.158 409.889 627.941 413.512 627.796 414.092C626.926 414.092 625.839 414.092 624.535 414.092C623.376 414.092 621.999 414.164 620.405 414.309C618.955 414.309 617.216 414.381 615.188 414.526C613.159 414.816 611.13 415.034 609.101 415.178C607.217 415.178 605.26 415.251 603.232 415.396C602.942 411.193 602.652 407.063 602.362 403.005C602.072 398.947 601.782 394.817 601.492 390.614C600.913 382.209 600.623 374.166 600.623 366.485C600.623 358.804 600.768 351.413 601.058 344.312C601.927 330.11 602.652 322.719 603.232 322.139C603.811 321.56 604.174 318.516 604.318 313.009C604.463 310.111 604.753 307.285 605.188 304.531C605.768 301.633 606.42 298.662 607.144 295.619C607.869 292.72 608.521 289.677 609.101 286.489C609.825 283.156 610.405 279.678 610.84 276.055C611.13 274.171 611.347 272.576 611.492 271.272C611.637 269.823 611.782 268.591 611.927 267.577C612.072 266.272 612.217 265.185 612.362 264.316L633.013 263.881C633.448 264.606 633.882 265.33 634.317 266.055C634.752 266.78 635.259 267.722 635.839 268.881C636.418 269.895 637.071 271.055 637.795 272.359C640.549 278.156 644.099 283.518 648.447 288.445C652.794 293.662 659.388 304.531 668.229 321.052C670.402 325.11 672.504 329.168 674.533 333.226C676.706 337.284 678.88 341.414 681.054 345.617C681.199 345.182 681.271 343.95 681.271 341.921C681.416 339.892 681.561 337.501 681.706 334.747C681.851 331.849 681.924 328.806 681.924 325.617C682.068 322.429 682.141 319.531 682.141 316.922C682.141 313.589 682.141 310.691 682.141 308.227C682.141 305.618 682.141 303.01 682.141 300.401C682.141 297.648 682.141 294.749 682.141 291.706C682.286 288.518 682.358 284.677 682.358 280.185C682.358 277.721 682.576 275.113 683.01 272.359C683.59 269.461 683.735 266.78 683.445 264.316L709.096 265.185Z" fill="white"/>
<path d="M760.446 333.878C760.736 339.24 760.88 345.979 760.88 354.094C761.025 362.21 761.025 371.775 760.88 382.789C760.446 404.962 760.156 416.193 760.011 416.483C759.866 416.773 758.489 416.918 755.881 416.918C753.417 416.918 750.736 416.918 747.838 416.918C744.36 416.918 740.374 416.918 735.882 416.918C735.302 414.744 734.722 412.135 734.143 409.092C733.563 406.483 732.911 403.223 732.186 399.31C731.462 395.252 730.664 390.542 729.795 385.18C728.201 374.456 726.969 365.688 726.1 358.877C725.375 351.921 725.013 346.921 725.013 343.877C725.013 340.689 725.23 335.834 725.665 329.313C726.1 322.791 726.824 314.386 727.839 304.097C728.273 299.024 728.708 294.242 729.143 289.75C729.578 285.112 730.012 281.054 730.447 277.576C730.737 273.663 731.099 269.968 731.534 266.49C732.259 266.345 733.128 266.2 734.143 266.055C735.012 265.91 736.027 265.765 737.186 265.62C738.345 265.475 739.65 265.33 741.099 265.185C747.041 264.316 750.519 263.881 751.533 263.881C752.548 263.881 754.142 272.866 756.315 290.836C757.475 299.966 758.344 308.082 758.924 315.183C759.649 322.139 760.156 328.371 760.446 333.878Z" fill="white"/>
<path d="M855.198 257.36C847.663 250.404 840.851 244.099 834.765 238.448C832.156 235.984 829.62 233.593 827.156 231.274C824.693 228.81 822.446 226.637 820.417 224.753C818.389 222.724 816.65 221.057 815.2 219.753C813.896 218.304 813.099 217.362 812.809 216.927C811.65 215.333 810.346 213.811 808.896 212.362C807.592 210.768 806.94 209.898 806.94 209.753C806.94 209.318 808.462 207.724 811.505 204.971C813.244 203.667 814.403 202.725 814.983 202.145C815.418 201.855 815.78 201.565 816.07 201.275C819.693 203.884 822.954 206.348 825.852 208.666C828.461 210.55 830.852 212.362 833.026 214.101C835.344 215.695 836.794 216.782 837.373 217.362C837.953 217.796 839.33 218.811 841.503 220.405C843.822 221.999 846.213 223.738 848.677 225.622C851.286 227.361 853.604 229.028 855.633 230.622C857.807 232.216 859.111 233.23 859.546 233.665C859.981 234.1 860.705 234.752 861.72 235.622C862.879 236.346 864.039 237.216 865.198 238.23C866.502 239.1 867.589 239.897 868.459 240.621C869.328 241.346 869.763 241.781 869.763 241.926C869.763 242.505 869.111 243.592 867.807 245.186C866.502 246.636 864.981 248.23 863.242 249.969C861.503 251.563 859.836 253.085 858.242 254.534C856.648 255.983 855.633 256.925 855.198 257.36ZM872.806 390.18C872.806 391.194 872.806 392.353 872.806 393.658C872.661 394.672 872.517 395.832 872.372 397.136C872.227 398.44 872.009 399.817 871.719 401.266C871.14 404.165 870.488 406.628 869.763 408.657C869.183 410.686 868.604 412.425 868.024 413.874C867.444 415.613 866.865 417.062 866.285 418.222C863.097 418.222 860.053 418.222 857.155 418.222C854.691 418.222 852.228 418.149 849.764 418.004C847.3 417.86 845.416 417.642 844.112 417.352C841.359 416.918 838.025 416.555 834.112 416.265C830.2 415.976 825.635 415.831 820.417 415.831H799.984C795.781 415.686 791.506 415.613 787.158 415.613C785.419 411.121 783.897 406.846 782.593 402.788C781.434 399.165 780.419 395.542 779.55 391.919C778.68 388.151 778.318 385.107 778.463 382.789C779.332 373.369 780.419 366.268 781.724 361.485C783.173 356.558 784.405 350.182 785.419 342.356C785.999 338.153 786.506 332.574 786.941 325.617C787.376 318.516 787.883 309.821 788.462 299.532C788.752 294.459 789.115 289.967 789.549 286.054C789.984 281.996 790.346 278.591 790.636 275.837C791.216 272.649 791.723 269.895 792.158 267.577C793.752 267.432 795.564 267.287 797.592 267.142C799.331 267.142 801.433 267.142 803.896 267.142C806.36 266.997 809.041 267.069 811.94 267.359C823.678 267.794 832.229 267.359 837.591 266.055C840.199 265.475 842.88 265.041 845.634 264.751C848.822 264.461 851.648 264.533 854.112 264.968C855.561 265.113 857.082 265.33 858.677 265.62C860.416 265.91 862.01 266.2 863.459 266.49C865.053 266.925 866.72 267.359 868.459 267.794C868.314 269.243 868.169 270.837 868.024 272.576C867.734 274.171 867.444 276.055 867.154 278.228C867.009 280.402 866.647 282.793 866.068 285.402C865.633 288.01 865.271 290.112 864.981 291.706C864.691 293.3 864.401 294.459 864.111 295.184C863.821 296.199 863.531 296.923 863.242 297.358C861.647 297.213 859.908 297.068 858.024 296.923C856.43 296.778 854.691 296.633 852.807 296.488C850.923 296.343 848.967 296.126 846.938 295.836C842.735 295.401 838.388 294.822 833.895 294.097C829.403 293.228 824.765 292.648 819.983 292.358L805.418 291.706C805.708 294.894 805.925 298.082 806.07 301.271C806.215 304.459 806.433 307.647 806.722 310.836C807.012 314.024 807.23 317.212 807.375 320.4C807.519 323.589 807.737 326.487 808.027 329.096C808.172 331.994 808.317 334.82 808.461 337.573C810.78 337.284 813.316 336.994 816.07 336.704C818.389 336.414 820.997 336.124 823.896 335.834C826.794 335.545 829.91 335.327 833.243 335.182C836.431 334.892 839.547 334.747 842.59 334.747C845.779 334.747 848.677 334.747 851.286 334.747C854.329 334.747 857.227 334.82 859.981 334.965C859.981 337.284 859.908 339.457 859.763 341.486C859.763 343.37 859.691 345.327 859.546 347.356C859.401 349.24 859.184 350.834 858.894 352.138C858.749 353.152 858.532 354.384 858.242 355.833C857.952 357.138 857.662 358.514 857.372 359.964C857.082 361.558 856.793 363.152 856.503 364.746C851.575 364.166 846.866 363.659 842.373 363.224C838.605 362.79 834.765 362.355 830.852 361.92C827.084 361.485 824.113 361.196 821.939 361.051C820.2 360.906 817.881 360.761 814.983 360.616C812.085 360.471 809.693 360.254 807.809 359.964C807.809 361.993 807.737 363.949 807.592 365.833C807.592 367.572 807.592 369.456 807.592 371.485C807.592 372.354 807.447 373.949 807.157 376.267C807.012 378.586 806.867 380.977 806.722 383.441C806.578 385.904 806.36 388.296 806.07 390.614C805.925 392.933 805.853 394.527 805.853 395.397C807.012 395.397 808.824 395.252 811.287 394.962C813.896 394.672 816.794 394.31 819.983 393.875C823.316 393.295 826.721 392.788 830.2 392.353C833.823 391.774 837.228 391.267 840.417 390.832C843.605 390.252 846.358 389.89 848.677 389.745C850.996 389.455 852.59 389.383 853.459 389.528C854.619 389.672 856.285 389.817 858.459 389.962C860.633 389.962 862.807 390.035 864.981 390.18C867.444 390.18 870.053 390.18 872.806 390.18Z" fill="white"/>
<path d="M961.114 366.92C961.259 367.21 962.201 368.514 963.94 370.833C965.824 373.007 967.78 375.47 969.809 378.224C972.273 381.267 975.099 384.745 978.287 388.658C977.563 389.383 976.766 390.325 975.896 391.484C975.026 392.353 973.94 393.44 972.635 394.745C971.331 396.049 969.809 397.498 968.07 399.092C960.969 405.614 956.911 408.947 955.897 409.092C954.882 409.237 952.781 407.498 949.593 403.875C947.999 401.991 946.187 399.527 944.158 396.484C942.274 393.295 940.173 389.6 937.854 385.397C933.507 376.992 928.942 370.326 924.159 365.398C921.985 362.79 919.739 360.326 917.42 358.007V380.18C917.42 383.948 917.348 387.861 917.203 391.919C917.203 395.976 917.058 399.672 916.768 403.005C916.623 406.918 916.406 410.831 916.116 414.744C914.957 414.889 913.652 415.034 912.203 415.178C911.044 415.323 909.522 415.468 907.638 415.613C905.899 415.613 903.943 415.541 901.769 415.396C899.595 415.251 897.566 415.106 895.682 414.961C893.943 414.671 892.494 414.381 891.335 414.092C889.885 413.657 888.654 413.222 887.639 412.787C887.494 410.469 887.422 407.715 887.422 404.527C887.277 401.918 887.204 398.802 887.204 395.179C887.204 391.411 887.204 387.209 887.204 382.571C887.494 373.296 887.857 365.036 888.291 357.79C888.726 350.399 889.306 343.95 890.03 338.443C890.9 332.936 891.625 326.704 892.204 319.748C892.929 312.792 893.581 305.039 894.161 296.488C895.32 279.678 896.334 270.475 897.204 268.881C898.218 267.142 901.334 265.765 906.551 264.751C907.856 264.461 909.377 264.316 911.116 264.316C912.855 264.171 914.812 264.026 916.986 263.881C919.159 263.736 921.551 263.736 924.159 263.881C926.768 263.881 929.594 263.954 932.637 264.099C944.955 264.533 952.636 265.403 955.68 266.707C957.274 267.577 958.94 268.664 960.679 269.968C962.563 271.272 964.375 272.721 966.114 274.315C967.853 275.765 969.447 277.359 970.896 279.098C972.345 280.692 973.36 282.359 973.94 284.098C975.389 287.141 976.113 291.851 976.113 298.227C976.113 302.865 975.534 307.502 974.374 312.14C973.36 316.777 971.766 321.197 969.592 325.4C967.418 329.458 964.737 333.226 961.549 336.704C958.361 340.182 954.665 343.008 950.462 345.182C948.868 345.906 947.202 346.703 945.463 347.573C943.868 348.442 942.274 349.24 940.68 349.964C942.419 351.268 944.086 352.573 945.68 353.877C947.419 355.036 949.086 356.268 950.68 357.572C957.491 362.79 960.969 365.905 961.114 366.92ZM946.332 307.792C947.347 305.184 947.854 301.995 947.854 298.227C947.854 294.604 947.202 292.068 945.897 290.619C944.738 289.025 942.999 287.648 940.68 286.489C939.521 285.909 937.709 285.329 935.246 284.75C932.927 284.025 929.811 283.156 925.898 282.141C923.869 281.706 921.913 281.272 920.029 280.837C918.145 280.257 916.189 279.75 914.16 279.315C914.45 283.518 914.667 287.648 914.812 291.706C914.957 295.619 915.174 299.677 915.464 303.879C915.754 307.937 915.899 311.995 915.899 316.053C916.044 320.11 916.261 324.168 916.551 328.226C917.42 328.226 918.29 328.226 919.16 328.226C920.029 328.081 920.899 328.009 921.768 328.009C923.507 327.719 925.681 326.849 928.289 325.4C930.898 323.806 933.434 321.994 935.898 319.966C938.362 317.937 940.535 315.835 942.419 313.661C944.448 311.343 945.753 309.386 946.332 307.792Z" fill="white"/>
<path d="M1085.3 390.18C1085.3 391.194 1085.3 392.353 1085.3 393.658C1085.16 394.672 1085.02 395.832 1084.87 397.136C1084.73 398.44 1084.51 399.817 1084.22 401.266C1083.64 404.165 1082.99 406.628 1082.26 408.657C1081.68 410.686 1081.1 412.425 1080.52 413.874C1079.94 415.613 1079.36 417.062 1078.78 418.222C1075.6 418.222 1072.55 418.222 1069.65 418.222C1067.19 418.222 1064.73 418.149 1062.26 418.004C1059.8 417.86 1057.91 417.642 1056.61 417.352C1051.54 416.338 1043.64 415.831 1032.92 415.831H1012.48C1008.28 415.686 1004 415.613 999.657 415.613C997.918 411.121 996.396 406.846 995.092 402.788C993.932 399.165 992.918 395.542 992.048 391.919C991.179 388.151 990.817 385.107 990.961 382.789C991.831 373.369 992.918 366.268 994.222 361.485C994.947 359.022 995.599 356.268 996.179 353.225C996.758 350.037 997.338 346.414 997.918 342.356C998.497 338.153 999.005 332.574 999.439 325.617C999.874 318.516 1000.38 309.821 1000.96 299.532C1001.25 294.459 1001.61 289.967 1002.05 286.054C1002.48 281.996 1002.85 278.591 1003.13 275.837C1003.71 272.649 1004.22 269.895 1004.66 267.577C1006.25 267.432 1008.06 267.287 1010.09 267.142C1013.71 266.852 1018.5 266.852 1024.44 267.142C1035.89 267.722 1044.44 267.359 1050.09 266.055C1052.7 265.475 1055.38 265.041 1058.13 264.751C1061.32 264.461 1064.15 264.533 1066.61 264.968C1068.06 265.113 1069.58 265.33 1071.18 265.62C1072.91 265.91 1074.51 266.2 1075.96 266.49C1077.55 266.925 1079.22 267.359 1080.96 267.794C1080.81 269.243 1080.67 270.837 1080.52 272.576C1080.23 274.171 1079.94 276.055 1079.65 278.228C1079.51 280.402 1079.15 282.793 1078.57 285.402C1078.13 288.01 1077.77 290.112 1077.48 291.706C1077.19 293.3 1076.9 294.459 1076.61 295.184C1076.32 296.199 1076.03 296.923 1075.74 297.358C1074.15 297.213 1072.41 297.068 1070.52 296.923C1068.93 296.778 1067.19 296.633 1065.31 296.488C1063.42 296.343 1061.47 296.126 1059.44 295.836C1055.23 295.401 1050.89 294.822 1046.39 294.097C1041.9 293.228 1037.26 292.648 1032.48 292.358L1017.92 291.706C1018.21 294.894 1018.42 298.082 1018.57 301.271C1018.71 304.459 1018.93 307.647 1019.22 310.836C1019.51 314.024 1019.73 317.212 1019.87 320.4C1020.02 323.589 1020.24 326.487 1020.53 329.096C1020.67 331.994 1020.82 334.82 1020.96 337.573C1023.28 337.284 1025.81 336.994 1028.57 336.704C1030.89 336.414 1033.5 336.124 1036.39 335.834C1039.29 335.545 1042.41 335.327 1045.74 335.182C1048.93 334.892 1052.05 334.747 1055.09 334.747C1058.28 334.747 1061.18 334.747 1063.78 334.747C1066.83 334.747 1069.73 334.82 1072.48 334.965C1072.48 337.284 1072.41 339.457 1072.26 341.486C1072.26 343.37 1072.19 345.327 1072.04 347.356C1071.9 349.24 1071.68 350.834 1071.39 352.138C1071.25 353.007 1071.03 354.167 1070.74 355.616C1070.45 357.065 1070.16 358.442 1069.87 359.746C1069.58 361.34 1069.29 362.935 1069 364.529C1064.07 363.949 1059.36 363.442 1054.87 363.007C1051.1 362.572 1047.26 362.21 1043.35 361.92C1039.58 361.485 1036.61 361.196 1034.44 361.051C1032.7 360.906 1030.38 360.761 1027.48 360.616C1024.58 360.471 1022.19 360.254 1020.31 359.964C1020.31 361.848 1020.24 363.732 1020.09 365.616C1020.09 367.5 1020.09 369.384 1020.09 371.267C1019.95 371.847 1019.87 372.572 1019.87 373.441C1019.87 374.166 1019.8 375.108 1019.66 376.267L1018.57 390.614C1018.57 391.774 1018.5 392.788 1018.35 393.658C1018.35 394.382 1018.35 394.962 1018.35 395.397C1019.51 395.397 1021.32 395.252 1023.79 394.962C1026.39 394.672 1029.29 394.31 1032.48 393.875C1035.81 393.295 1039.22 392.788 1042.7 392.353C1046.32 391.774 1049.73 391.267 1052.92 390.832C1056.1 390.252 1058.86 389.89 1061.18 389.745C1063.49 389.455 1065.09 389.383 1065.96 389.528C1067.12 389.672 1068.78 389.817 1070.96 389.962C1073.13 389.962 1075.31 390.035 1077.48 390.18C1079.94 390.18 1082.55 390.18 1085.3 390.18Z" fill="white"/>
</svg>
