<?xml version="1.0" encoding="UTF-8"?>
<svg id="Calque_2" data-name="Calque 2" xmlns="http://www.w3.org/2000/svg" viewBox="0 0 75 75">
  <defs>
    <style>
      .cls-1 {
        stroke-width: 4px;
      }

      .cls-1, .cls-2 {
        fill: none;
        stroke: #fff;
        stroke-miterlimit: 10;
      }

      .cls-2 {
        stroke-width: 3px;
      }

      .cls-3 {
        fill: #fff;
      }
    </style>
  </defs>
  <path class="cls-1" d="M63.43,39.12c0,2.8-.65,5.41-1.47,7.95s-1.51,5.38-3.1,7.57-3.56,4.33-5.77,5.94-4.8,2.83-7.42,3.68-5.36,1.15-8.16,1.15-5.37-1.16-7.9-1.98-5.02-1.93-7.2-3.52-4.44-3.21-6.05-5.42-2.54-4.77-3.39-7.39-.99-5.17-.99-7.97-.22-5.57.61-8.1,2.25-5.03,3.84-7.22,3.71-3.96,5.91-5.57,4.6-2.71,7.23-3.57,5.14-1.41,7.94-1.41,5.57.12,8.1.94,4.98,2.33,7.16,3.92,3.98,3.66,5.58,5.86,2.84,4.54,3.7,7.17,1.39,5.17,1.39,7.97Z"/>
  <g>
    <polygon class="cls-3" points="40.26 58.76 34.74 58.77 34.09 58.05 34.26 53.15 33.8 48.25 34.11 43.34 33.82 38.44 33.93 33.53 34.74 32.86 40.26 32.56 41.05 33.53 41.13 38.43 41.22 43.33 41.25 48.23 40.8 53.14 41.23 58.05 40.26 58.76"/>
    <polygon class="cls-2" points="40.26 58.76 34.74 58.77 34.09 58.05 34.26 53.15 33.8 48.25 34.11 43.34 33.82 38.44 33.93 33.53 34.74 32.86 40.26 32.56 41.05 33.53 41.13 38.43 41.22 43.33 41.25 48.23 40.8 53.14 41.23 58.05 40.26 58.76"/>
  </g>
  <g>
    <path class="cls-3" d="M41.65,24.18c0,.72-.22,1.5-.55,2.08s-.92,1.17-1.52,1.52-1.36.38-2.08.38-1.42-.2-2-.53-1.05-.9-1.4-1.49-.79-1.24-.79-1.96.3-1.46.64-2.05.99-.99,1.59-1.34,1.24-.34,1.96-.34,1.32.1,1.9.43.98.83,1.33,1.43.93,1.15.93,1.87Z"/>
    <path class="cls-2" d="M41.65,24.18c0,.72-.22,1.5-.55,2.08s-.92,1.17-1.52,1.52-1.36.38-2.08.38-1.42-.2-2-.53-1.05-.9-1.4-1.49-.79-1.24-.79-1.96.3-1.46.64-2.05.99-.99,1.59-1.34,1.24-.34,1.96-.34,1.32.1,1.9.43.98.83,1.33,1.43.93,1.15.93,1.87Z"/>
  </g>
</svg>