<?xml version="1.0" encoding="UTF-8"?>
<svg id="Calque_3" data-name="Calque 3" xmlns="http://www.w3.org/2000/svg" viewBox="0 0 75 75">
  <defs>
    <style>
      .cls-1 {
        stroke-width: 4px;
      }

      .cls-1, .cls-2 {
        fill: none;
        stroke: #fff;
        stroke-miterlimit: 10;
      }

      .cls-2 {
        stroke-width: 3px;
      }

      .cls-3 {
        fill: #fff;
      }
    </style>
  </defs>
  <g>
    <path class="cls-3" d="M27.64,22.69c0,7.05-.1,10.57-.04,14.09s.09,7.05.09,14.1c0,.71.49.99,1.1.63,5.88-3.52,8.73-5.43,11.71-7.13s5.9-3.48,11.78-7c.6-.36.62-.87.03-1.23-5.88-3.52-8.92-5.12-11.88-6.84s-5.77-3.72-11.65-7.24c-.6-.36-1.14-.08-1.14.62Z"/>
    <path class="cls-2" d="M27.64,22.69c0,7.05-.1,10.57-.04,14.09s.09,7.05.09,14.1c0,.71.49.99,1.1.63,5.88-3.52,8.73-5.43,11.71-7.13s5.9-3.48,11.78-7c.6-.36.62-.87.03-1.23-5.88-3.52-8.92-5.12-11.88-6.84s-5.77-3.72-11.65-7.24c-.6-.36-1.14-.08-1.14.62Z"/>
  </g>
  <path class="cls-1" d="M63.25,37.5c0,2.8-.08,5.54-.91,8.07s-2.29,4.98-3.88,7.16-3.47,4.22-5.67,5.82-4.54,3.13-7.16,3.98-5.33,1.45-8.13,1.45-5.63-.56-8.16-1.38-4.97-2.44-7.16-4.03-3.83-3.8-5.44-6-3.51-4.29-4.36-6.92-1.28-5.35-1.28-8.16.91-5.48,1.73-8.01,2.21-4.96,3.79-7.14,3.65-3.9,5.85-5.51,4.41-3.04,7.03-3.89,5.17-1.56,7.98-1.56,5.61.23,8.14,1.05,5.24,2.05,7.42,3.64,3.64,4.1,5.25,6.3,2.62,4.61,3.47,7.23,1.47,5.09,1.47,7.89Z"/>
</svg>