<?xml version="1.0" encoding="UTF-8"?>
<svg id="Calque_9" data-name="Calque 9" xmlns="http://www.w3.org/2000/svg" viewBox="0 0 75 75">
  <defs>
    <style>
      .cls-1 {
        stroke-width: 4px;
      }

      .cls-1, .cls-2 {
        fill: none;
        stroke: #fff;
        stroke-miterlimit: 10;
      }

      .cls-2 {
        stroke-width: 3px;
      }

      .cls-3 {
        fill: #fff;
      }
    </style>
  </defs>
  <path class="cls-1" d="M63.81,36.79c0,2.8-.8,5.41-1.62,7.94s-1.6,5.31-3.19,7.5-3.63,4.18-5.83,5.78-4.71,2.82-7.33,3.67-5.28,1.35-8.09,1.35-5.44-.89-7.97-1.71-4.94-2.17-7.13-3.76-4.2-3.39-5.81-5.59-3.3-4.43-4.15-7.05-1.09-5.34-1.09-8.14.8-5.44,1.62-7.97,1.65-5.31,3.24-7.5,3.88-3.86,6.08-5.46,4.7-2.47,7.33-3.32,5.07-2.05,7.88-2.05,5.4,1.06,7.93,1.88,5.09,1.9,7.27,3.48,4.6,3.17,6.2,5.38,2.78,4.8,3.63,7.42,1.03,5.33,1.03,8.14Z"/>
  <g>
    <path class="cls-3" d="M38.14,27.28c-.04,3.55-.4,3.55-.44,7.1s.26,3.56.22,7.11-.37,3.55-.41,7.11c-.01.89-.88,1.58-1.62,1.09-2.7-1.79-2.72-1.77-5.42-3.57s-2.62-1.93-5.32-3.72c-.18-.12-.36-.22-.58-.22-2.16,0-2.16.14-4.32.14-.62,0-1.01-.65-1.01-1.27,0-3.25-.07-3.25-.07-6.49,0-.62.46-1.27,1.08-1.27,2.08,0,2.08-.01,4.17-.01.21,0,.35,0,.53-.1,2.82-1.74,2.78-1.8,5.6-3.54s2.81-1.76,5.63-3.5c.75-.46,1.97.27,1.96,1.15Z"/>
    <path class="cls-2" d="M38.14,27.28c-.04,3.55-.4,3.55-.44,7.1s.26,3.56.22,7.11-.37,3.55-.41,7.11c-.01.89-.88,1.58-1.62,1.09-2.7-1.79-2.72-1.77-5.42-3.57s-2.62-1.93-5.32-3.72c-.18-.12-.36-.22-.58-.22-2.16,0-2.16.14-4.32.14-.62,0-1.01-.65-1.01-1.27,0-3.25-.07-3.25-.07-6.49,0-.62.46-1.27,1.08-1.27,2.08,0,2.08-.01,4.17-.01.21,0,.35,0,.53-.1,2.82-1.74,2.78-1.8,5.6-3.54s2.81-1.76,5.63-3.5c.75-.46,1.97.27,1.96,1.15Z"/>
  </g>
  <path class="cls-2" d="M45.93,53.02c2.55-2.39,2.34-2.12,4.31-5.59,1.03-1.82,1.75-4.17,2.27-6.65.45-2.14.55-4.49.1-6.96-.38-2.09-1.06-4.33-2.39-6.57-1.07-1.8-2.6-3.56-4.45-5.41"/>
  <path class="cls-2" d="M42.99,45.25c3.25-3.05,3.45-3.33,3.53-7.93.04-2.38-.84-5.02-3.62-7.8"/>
</svg>