<?xml version="1.0" encoding="UTF-8"?>
<svg id="Calque_11" data-name="Calque 11" xmlns="http://www.w3.org/2000/svg" viewBox="0 0 75 75">
  <defs>
    <style>
      .cls-1 {
        stroke-width: 4px;
      }

      .cls-1, .cls-2 {
        fill: none;
        stroke: #fff;
        stroke-miterlimit: 10;
      }

      .cls-2 {
        stroke-width: 3px;
      }

      .cls-3 {
        fill: #fff;
      }
    </style>
  </defs>
  <path class="cls-1" d="M63.74,39.12c0,2.8-.04,5.55-.87,8.08s-2.56,4.79-4.15,6.97-3.02,4.66-5.23,6.27-4.72,2.9-7.34,3.75-5.34.5-8.15.5-5.49-.07-8.02-.89-5.24-1.84-7.43-3.42-3.6-4.05-5.2-6.26-2.88-4.46-3.73-7.08-2.03-5.12-2.03-7.92,1.13-5.42,1.95-7.95,1.48-5.41,3.07-7.6,4.13-3.58,6.33-5.19,4.55-2.71,7.17-3.56,5.09-2.05,7.89-2.05,5.44.99,7.97,1.81,5.29,1.68,7.47,3.27,3.9,3.83,5.5,6.04,2.76,4.61,3.61,7.24,1.19,5.17,1.19,7.98Z"/>
  <g>
    <path class="cls-3" d="M38.36,29.61c-.04,3.55,0,3.55-.05,7.11s-.38,3.55-.42,7.11.35,3.56.31,7.11c-.01.89-1.16,1.34-1.9.85-2.7-1.79-2.79-1.67-5.49-3.46s-2.71-1.79-5.41-3.58c-.18-.12-.36-.15-.58-.15-2.16,0-2.16-.22-4.32-.22-.62,0-1.21-.39-1.21-1,0-3.25.14-3.25.14-6.49,0-.62.45-1.22,1.06-1.22q2.08,0,4.17,0c.21,0,.33-.09.51-.2,2.82-1.74,2.91-1.6,5.73-3.33s2.9-1.61,5.72-3.34c.75-.46,1.74-.06,1.73.83Z"/>
    <path class="cls-2" d="M38.36,29.61c-.04,3.55,0,3.55-.05,7.11s-.38,3.55-.42,7.11.35,3.56.31,7.11c-.01.89-1.16,1.34-1.9.85-2.7-1.79-2.79-1.67-5.49-3.46s-2.71-1.79-5.41-3.58c-.18-.12-.36-.15-.58-.15-2.16,0-2.16-.22-4.32-.22-.62,0-1.21-.39-1.21-1,0-3.25.14-3.25.14-6.49,0-.62.45-1.22,1.06-1.22q2.08,0,4.17,0c.21,0,.33-.09.51-.2,2.82-1.74,2.91-1.6,5.73-3.33s2.9-1.61,5.72-3.34c.75-.46,1.74-.06,1.73.83Z"/>
  </g>
  <polyline class="cls-2" points="43.33 32.7 47.25 37.71 51.29 42.62 55.35 47.53"/>
  <polyline class="cls-2" points="43.41 47.62 47.27 42.57 51.21 37.57 55.4 32.76"/>
</svg>