<?xml version="1.0" encoding="UTF-8"?>
<svg id="Calque_12" data-name="Calque 12" xmlns="http://www.w3.org/2000/svg" viewBox="0 0 75 75">
  <defs>
    <style>
      .cls-1 {
        stroke-width: 4px;
      }

      .cls-1, .cls-2 {
        fill: none;
        stroke: #fff;
        stroke-miterlimit: 10;
      }

      .cls-2 {
        stroke-width: 3px;
      }

      .cls-3 {
        fill: #fff;
      }
    </style>
  </defs>
  <path class="cls-1" d="M63.54,37.5c0,2.8-.75,5.42-1.58,7.95s-1.81,5.17-3.4,7.35-3.29,4.52-5.5,6.12-4.88,2.54-7.5,3.39-5.26.76-8.06.76-5.63.36-8.16-.46-5.05-2.34-7.24-3.92-4.42-3.42-6.02-5.63-2.13-5.01-2.98-7.63-2.1-5.12-2.1-7.93,1.02-5.48,1.84-8.02,2.27-4.92,3.86-7.1,3.32-4.31,5.53-5.92,4.72-2.54,7.34-3.39,5.13-1.2,7.94-1.2,5.64-.33,8.17.49,4.75,2.76,6.93,4.35,4.28,3.33,5.89,5.53,2.72,4.64,3.58,7.27,1.48,5.18,1.48,7.98Z"/>
  <g>
    <polygon class="cls-3" points="37.5 22.59 33.73 26.17 29.79 29.61 25.71 32.86 25.6 38.17 25.46 43.51 25.68 48.85 33.48 48.97 33.51 41.7 41.73 41.45 41.62 48.86 49.13 49.05 48.79 43.57 48.84 38.29 48.77 33.11 45.22 29.47 41.42 25.95 37.5 22.59"/>
    <polygon class="cls-2" points="37.5 22.59 33.73 26.17 29.79 29.61 25.71 32.86 25.6 38.17 25.46 43.51 25.68 48.85 33.48 48.97 33.51 41.7 41.73 41.45 41.62 48.86 49.13 49.05 48.79 43.57 48.84 38.29 48.77 33.11 45.22 29.47 41.42 25.95 37.5 22.59"/>
  </g>
</svg>