<?xml version="1.0" encoding="UTF-8"?>
<svg id="Calque_7" data-name="Calque 7" xmlns="http://www.w3.org/2000/svg" viewBox="0 0 75 75">
  <defs>
    <style>
      .cls-1, .cls-2, .cls-3 {
        fill: none;
        stroke: #fff;
        stroke-miterlimit: 10;
      }

      .cls-2 {
        stroke-width: 4px;
      }

      .cls-3 {
        stroke-width: 3px;
      }

      .cls-4 {
        fill: #fff;
      }
    </style>
  </defs>
  <path class="cls-2" d="M63.83,37.5c0,2.8-1.14,5.39-1.96,7.92s-1.51,5.35-3.1,7.54-3.88,3.85-6.08,5.45-4.47,3.15-7.1,4.01-5.29,1.45-8.1,1.45-5.52-.76-8.05-1.58-4.8-2.5-6.98-4.09-4.34-3.25-5.95-5.45-2.49-4.72-3.35-7.34-2-5.1-2-7.9.9-5.46,1.72-7.99,1.56-5.41,3.15-7.59,3.98-3.83,6.18-5.43,4.51-3.16,7.14-4.02,5.33-1.11,8.13-1.11,5.35,1.06,7.88,1.88,5.08,1.82,7.27,3.41,4.6,3.13,6.21,5.34,2.47,4.87,3.32,7.5,1.65,5.21,1.65,8.02Z"/>
  <path class="cls-2" d="M19.74,37.77c.47-.72,1.48-2.9,3.55-4.93,1.32-1.29,2.96-2.65,4.85-3.72,1.69-.96,3.66-1.72,5.76-2.06,1.87-.3,3.86.14,6.01.63,1.78.41,3.85.66,5.81,1.79,1.58.92,2.87,2.57,4.56,4.06,1.39,1.23,3.03,2.42,4.49,4.1.15.17.25.48.12.66-.59.76-2.3,2.89-4.88,4.94-1.65,1.3-3.71,2.58-6,3.51-2.04.82-4.36,1.31-6.8,1.31-2.12,0-4.31-.66-6.67-1.64-1.91-.79-3.96-1.77-5.99-3.39-1.63-1.3-3.42-2.78-5.1-4.71-.14-.16.19-.36.3-.54Z"/>
  <path class="cls-3" d="M46.33,37.5c0,2.56-.98,4.81-2.66,6.49s-3.92,2.95-6.49,2.95-4.99-1.09-6.67-2.77-2.43-4.1-2.43-6.67.73-5.01,2.41-6.69,4.12-2.63,6.69-2.63,4.99.97,6.67,2.65,2.47,4.11,2.47,6.67Z"/>
  <g>
    <path class="cls-4" d="M37.97,35.17c0,.72-.53,1.3-.87,1.89s-.71,1.16-1.31,1.51-1.24.68-1.96.68-1.45-.22-2.03-.56-1.01-.97-1.36-1.57-.76-1.23-.76-1.95.32-1.42.66-2,.93-1.02,1.53-1.37,1.24-.56,1.96-.56,1.48.04,2.06.37,1.22.87,1.57,1.47.51,1.37.51,2.09Z"/>
    <path class="cls-1" d="M37.97,35.17c0,.72-.53,1.3-.87,1.89s-.71,1.16-1.31,1.51-1.24.68-1.96.68-1.45-.22-2.03-.56-1.01-.97-1.36-1.57-.76-1.23-.76-1.95.32-1.42.66-2,.93-1.02,1.53-1.37,1.24-.56,1.96-.56,1.48.04,2.06.37,1.22.87,1.57,1.47.51,1.37.51,2.09Z"/>
  </g>
</svg>