<?xml version="1.0" encoding="UTF-8"?>
<svg xmlns="http://www.w3.org/2000/svg" viewBox="0 0 75 75">
  <defs>
    <style>
      .cls-1 {
        fill: none;
        stroke: #fff;
        stroke-miterlimit: 10;
        stroke-width: 4px;
      }
    </style>
  </defs>
  <g id="Calque_12" data-name="Calque 12">
    <path class="cls-1" d="M63.29,37.2c0,2.8-.06,5.53-.88,8.06s-2.42,4.87-4.01,7.05-3.6,3.92-5.8,5.53-4.27,3.44-6.89,4.29-5.29.62-8.1.62-5.42-.27-7.95-1.09-5.19-1.78-7.37-3.37-4.14-3.58-5.75-5.78-2.96-4.6-3.81-7.22-.62-5.28-.62-8.08-.37-5.61.45-8.14,2.49-4.91,4.08-7.1,3.43-4.27,5.63-5.88,4.81-2.36,7.44-3.21,5.1-1.35,7.9-1.35,5.46.27,7.99,1.09,5.12,1.94,7.31,3.53,4.28,3.46,5.88,5.66,2.47,4.8,3.32,7.43,1.18,5.15,1.18,7.96Z"/>
  </g>
  <g id="Calque_10" data-name="Calque 10">
    <polyline class="cls-1" points="23.9 22.42 28.35 27.54 32.87 32.62 37.82 37.3 41.97 42.7 46.73 47.56 51.24 52.65"/>
    <polyline class="cls-1" points="23.74 52.44 28.4 47.5 33.23 42.7 37.77 37.66 42.28 32.58 46.57 27.29 51.44 22.52"/>
  </g>
</svg>