<?xml version="1.0" encoding="UTF-8"?>
<svg id="Calque_6" data-name="Calque 6" xmlns="http://www.w3.org/2000/svg" viewBox="0 0 75 75">
  <defs>
    <style>
      .cls-1 {
        stroke-width: 4px;
      }

      .cls-1, .cls-2, .cls-3 {
        fill: none;
        stroke: #fff;
        stroke-miterlimit: 10;
      }

      .cls-2 {
        stroke-width: 3px;
      }

      .cls-3 {
        stroke-width: 2px;
      }
    </style>
  </defs>
  <path class="cls-1" d="M63.9,36.79c0,2.8-.94,5.47-1.76,8s-2.1,5.03-3.69,7.21-3.56,4.07-5.77,5.67-4.64,2.6-7.26,3.45-5.1,1.5-7.91,1.5-5.37-.7-7.9-1.52-4.93-2.06-7.11-3.65-4.32-3.24-5.93-5.45-2.93-4.55-3.79-7.18-1.63-5.23-1.63-8.03.76-5.52,1.58-8.05,2.44-4.83,4.03-7.02,3.35-4.23,5.56-5.83,4.4-3.35,7.03-4.2,5.35-.9,8.15-.9,5.38.83,7.91,1.65,5.33,1.54,7.51,3.13,4.2,3.6,5.8,5.8,3.01,4.65,3.86,7.27,1.31,5.35,1.31,8.15Z"/>
  <path class="cls-1" d="M19.3,36.77c.47-.72,1.96-2.57,4.04-4.6,1.32-1.29,2.97-2.6,4.86-3.67,1.69-.96,3.65-1.53,5.75-1.87,1.87-.3,3.85-.31,6.01.18,1.78.41,3.71.99,5.67,2.13,1.58.92,3.36,1.96,5.05,3.45,1.39,1.23,2.46,3.02,3.92,4.69.15.17.22.16.09.33-.59.76-2.24,2.86-4.82,4.91-1.65,1.3-3.69,2.44-5.98,3.36-2.04.82-4.22,1.34-6.67,1.34-2.12,0-4.27-.46-6.63-1.44-1.91-.79-4.04-1.63-6.07-3.25-1.63-1.3-3.39-2.81-5.08-4.74-.14-.16-.25-.66-.13-.83Z"/>
  <path class="cls-2" d="M46.3,36.79c0,2.56-.81,4.94-2.49,6.62s-4.06,2.83-6.62,2.83-4.79-1.3-6.47-2.98-2.89-3.91-2.89-6.47,1.1-4.9,2.78-6.58,4.02-2.81,6.58-2.81,5.02,1.02,6.7,2.7,2.41,4.13,2.41,6.7Z"/>
  <path class="cls-3" d="M37.29,33.52c0,.72.1,1.43-.24,2s-.83,1.2-1.44,1.54-1.35.46-2.06.46-1.49-.12-2.07-.44-1.08-.97-1.43-1.56-.65-1.28-.65-2,.33-1.42.67-2.01.91-1.05,1.52-1.39,1.25-.77,1.97-.77,1.51.21,2.1.54.78,1.17,1.13,1.77.51,1.14.51,1.86Z"/>
</svg>