<?xml version="1.0" encoding="UTF-8"?>
<svg id="Calque_5" data-name="Calque 5" xmlns="http://www.w3.org/2000/svg" viewBox="0 0 75 75">
  <defs>
    <style>
      .cls-1 {
        stroke-width: 4px;
      }

      .cls-1, .cls-2 {
        fill: none;
        stroke: #fff;
        stroke-miterlimit: 10;
      }

      .cls-2 {
        stroke-width: 3px;
      }

      .cls-3 {
        fill: #fff;
      }
    </style>
  </defs>
  <path class="cls-1" d="M63.98,36.79c0,2.8-1.15,5.43-1.97,7.96s-1.7,5.27-3.29,7.46-3.93,3.74-6.14,5.34-4.58,2.64-7.2,3.49-5.08,2.01-7.88,2.01-5.42-.97-7.95-1.79-5.1-1.92-7.28-3.51-3.93-3.68-5.53-5.89-2.93-4.49-3.78-7.11-1.07-5.17-1.07-7.98-.16-5.58.66-8.11,2.37-4.97,3.96-7.15,3.6-4.06,5.81-5.66,4.66-2.59,7.28-3.44,5.11-2.13,7.92-2.13,5.59.69,8.12,1.52,4.81,2.6,6.99,4.19,3.91,3.61,5.51,5.82,3.25,4.33,4.1,6.95,1.76,5.23,1.76,8.03Z"/>
  <g>
    <polygon class="cls-3" points="33.76 50.01 28.24 49.61 27.74 49.05 27.71 44.15 27.57 39.25 27.66 34.34 27.34 29.44 27.53 24.53 28.24 23.69 33.76 23.57 34.39 24.53 34.44 29.43 34.55 34.33 34.68 39.23 34.28 44.14 34.58 49.05 33.76 50.01"/>
    <polygon class="cls-2" points="33.76 50.01 28.24 49.61 27.74 49.05 27.71 44.15 27.57 39.25 27.66 34.34 27.34 29.44 27.53 24.53 28.24 23.69 33.76 23.57 34.39 24.53 34.44 29.43 34.55 34.33 34.68 39.23 34.28 44.14 34.58 49.05 33.76 50.01"/>
  </g>
  <g>
    <polygon class="cls-3" points="46.76 49.89 41.24 49.77 40.34 49.05 40.72 44.15 40.42 39.25 40.44 34.34 40.52 29.44 40.42 24.53 41.24 23.89 46.76 23.93 47.55 24.53 47.33 29.43 47.43 34.33 47.59 39.23 47.72 44.14 47.41 49.05 46.76 49.89"/>
    <polygon class="cls-2" points="46.76 49.89 41.24 49.77 40.34 49.05 40.72 44.15 40.42 39.25 40.44 34.34 40.52 29.44 40.42 24.53 41.24 23.89 46.76 23.93 47.55 24.53 47.33 29.43 47.43 34.33 47.59 39.23 47.72 44.14 47.41 49.05 46.76 49.89"/>
  </g>
</svg>