<?xml version="1.0" encoding="UTF-8"?>
<svg id="Calque_12" data-name="Calque 12" xmlns="http://www.w3.org/2000/svg" viewBox="0 0 75 75">
  <defs>
    <style>
      .cls-1 {
        stroke-width: 4px;
      }

      .cls-1, .cls-2 {
        fill: none;
        stroke: #fff;
        stroke-miterlimit: 10;
      }

      .cls-2 {
        stroke-width: 3px;
      }

      .cls-3 {
        fill: #fff;
      }
    </style>
  </defs>
  <path class="cls-1" d="M63.62,36.5c0,2.8-.07,5.63-.89,8.16s-2.25,5.12-3.83,7.3-4.04,3.63-6.25,5.23-4.49,2.82-7.12,3.68-5.11,2.12-7.92,2.12-5.41-1.25-7.94-2.07-5.39-1.49-7.57-3.08-3.98-3.81-5.58-6.02-2.51-4.76-3.36-7.38-1.3-5.14-1.3-7.94.22-5.5,1.04-8.03,1.75-5.31,3.34-7.5,4.09-3.62,6.29-5.22,4.28-3.54,6.9-4.39,5.36-.71,8.17-.71,5.48.39,8.01,1.22,4.9,2.28,7.08,3.87,4.56,3.12,6.16,5.33,3.02,4.65,3.87,7.28.89,5.36.89,8.16Z"/>
  <path class="cls-1" d="M23.04,45.21c3.48,0,3.48-.12,6.96-.12s3.48.37,6.97.37,3.49,0,6.97,0,3.49.07,6.97.07c.71,0,1.34-.81,1.34-1.52,0-2.89.12-2.89.12-5.77s-.08-2.89-.08-5.77c0-.71-.67-1.31-1.38-1.31-3.58,0-3.58.02-7.16.02s-3.58-.14-7.16-.14-3.58-.14-7.16-.14"/>
  <g>
    <path class="cls-3" d="M29.33,34.35c-3.21-1.82-3.27-1.72-6.48-3.55,0-.04.03-.06.03-.09,3.24-1.89,3.23-1.91,6.49-3.77.03.02.04.02.07.04,0,3.68-.05,3.68-.06,7.37,0,.06,0,.03-.05,0Z"/>
    <path class="cls-2" d="M29.33,34.35c-3.21-1.82-3.27-1.72-6.48-3.55,0-.04.03-.06.03-.09,3.24-1.89,3.23-1.91,6.49-3.77.03.02.04.02.07.04,0,3.68-.05,3.68-.06,7.37,0,.06,0,.03-.05,0Z"/>
  </g>
</svg>