<?xml version="1.0" encoding="UTF-8"?>
<svg id="Calque_12" data-name="Calque 12" xmlns="http://www.w3.org/2000/svg" viewBox="0 0 75 75">
  <defs>
    <style>
      .cls-1 {
        stroke-width: 4px;
      }

      .cls-1, .cls-2 {
        fill: none;
        stroke: #fff;
        stroke-miterlimit: 10;
      }

      .cls-2 {
        stroke-width: 3px;
      }
    </style>
  </defs>
  <path class="cls-1" d="M63.83,36.79c0,2.8-.51,5.59-1.33,8.12s-2.47,4.9-4.06,7.09-3.32,4.39-5.53,6-4.86,2.32-7.49,3.17-5.12,1.17-7.92,1.17-5.38-.37-7.91-1.19-5.38-1.46-7.56-3.05-3.55-4.11-5.15-6.32-3.06-4.39-3.91-7.01-1.82-5.17-1.82-7.97.66-5.55,1.48-8.08,2.59-4.77,4.18-6.95,2.96-4.74,5.16-6.34,4.83-2.62,7.46-3.47,5.27-.83,8.07-.83,5.49.17,8.02.99,5.36,1.68,7.54,3.27,3.99,3.84,5.59,6.05,2.26,4.86,3.11,7.48,2.06,5.08,2.06,7.89Z"/>
  <polygon class="cls-2" points="40.26 56.64 34.74 56.44 34.01 55.71 34.04 50.81 33.96 45.91 34.09 41.01 34.14 36.1 34.22 31.19 34.74 30.64 40.26 30.3 40.9 31.19 41.11 36.09 41.12 40.99 40.95 45.9 40.99 50.81 41.03 55.71 40.26 56.64"/>
  <path class="cls-2" d="M41.54,21.85c0,.72-.18,1.45-.52,2.03s-.95,1.03-1.55,1.38-1.25.81-1.97.81-1.51-.23-2.09-.57-1.15-.96-1.49-1.56-.28-1.37-.28-2.08.08-1.43.4-2.01.92-1.03,1.51-1.38,1.22-.81,1.94-.81,1.31.59,1.89.93.99.81,1.34,1.42.8,1.14.8,1.87Z"/>
</svg>