<?xml version="1.0" encoding="UTF-8"?>
<svg id="Calque_10" data-name="Calque 10" xmlns="http://www.w3.org/2000/svg" viewBox="0 0 75 75">
  <defs>
    <style>
      .cls-1 {
        stroke-width: 4px;
      }

      .cls-1, .cls-2 {
        fill: none;
        stroke: #fff;
        stroke-miterlimit: 10;
      }

      .cls-2 {
        stroke-width: 3px;
      }
    </style>
  </defs>
  <path class="cls-1" d="M63.75,37.93c0,2.8.06,5.51-.76,8.04s-2.36,4.89-3.94,7.07-3.18,4.5-5.38,6.11-4.83,2.43-7.45,3.28-5.16,1.53-7.96,1.53-5.6-.19-8.13-1.01-5.27-1.98-7.46-3.57-3.71-4.06-5.31-6.27-2.64-4.64-3.49-7.26-1.92-5.12-1.92-7.92,1.15-5.38,1.97-7.91,1.57-5.29,3.16-7.48,3.96-3.67,6.17-5.27,4.22-3.6,6.85-4.46,5.35-.75,8.16-.75,5.44.52,7.97,1.34,4.92,2.19,7.1,3.78,4.53,3.13,6.13,5.34,2.28,4.87,3.14,7.5,1.17,5.1,1.17,7.91Z"/>
  <path class="cls-2" d="M38.65,28.42c-.04,3.55-.36,3.55-.4,7.1s.09,3.56.05,7.11.16,3.56.12,7.11c-.01.89-1.05,1.21-1.79.72-2.7-1.79-2.82-1.62-5.52-3.42s-2.68-1.83-5.39-3.62c-.18-.12-.44-.08-.66-.08-2.16,0-2.16.06-4.32.06-.62,0-.97-.61-.97-1.23,0-3.25-.25-3.25-.25-6.49,0-.62.6-1.19,1.22-1.19,2.08,0,2.08.18,4.17.18.21,0,.51,0,.69-.12,2.82-1.74,2.68-1.96,5.5-3.7s2.84-1.71,5.66-3.45c.75-.46,1.89.12,1.88,1Z"/>
  <polyline class="cls-2" points="43.71 31.4 47.48 36.53 51.49 41.47 55.47 46.44"/>
  <polyline class="cls-2" points="43.52 46.32 47.61 41.45 51.62 36.51 55.44 31.41"/>
</svg>