<?xml version="1.0" encoding="UTF-8"?>
<svg id="Calque_4" data-name="Calque 4" xmlns="http://www.w3.org/2000/svg" viewBox="0 0 75 75">
  <defs>
    <style>
      .cls-1 {
        stroke-width: 4px;
      }

      .cls-1, .cls-2 {
        fill: none;
        stroke: #fff;
        stroke-miterlimit: 10;
      }

      .cls-2 {
        stroke-width: 3px;
      }
    </style>
  </defs>
  <path class="cls-1" d="M63.2,36.79c0,2.8-.19,5.49-1.01,8.02s-2.1,5.05-3.69,7.23-3.55,4.13-5.75,5.73-4.65,2.71-7.27,3.56-5.17,1.62-7.98,1.62-5.6-.34-8.13-1.16-4.74-2.7-6.93-4.29-4.52-3.13-6.13-5.33-2.54-4.78-3.39-7.4-1.1-5.18-1.1-7.98-.01-5.55.81-8.08,2-5.19,3.59-7.38,3.63-4.19,5.83-5.8,4.7-2.89,7.32-3.74,5.31-.59,8.12-.59,5.56-.15,8.09.67,4.89,2.45,7.07,4.04,4.17,3.45,5.78,5.66,3.06,4.52,3.91,7.14.85,5.27.85,8.08Z"/>
  <polygon class="cls-2" points="33.76 49.65 28.24 49.79 27.59 49.05 27.58 44.15 27.39 39.25 27.47 34.34 27.57 29.44 27.34 24.53 28.24 23.57 33.76 24 34.62 24.53 34.72 29.43 34.72 34.33 34.28 39.23 34.63 44.14 34.26 49.05 33.76 49.65"/>
  <polygon class="cls-2" points="46.76 49.78 41.24 49.94 40.63 49.05 40.3 44.15 40.44 39.25 40.44 34.34 40.45 29.44 40.43 24.53 41.24 23.84 46.76 23.8 47.47 24.53 47.46 29.43 47.39 34.33 47.39 39.23 47.59 44.14 47.3 49.05 46.76 49.78"/>
</svg>