<?xml version="1.0" encoding="UTF-8"?>
<svg id="Calque_1" data-name="Calque 1" xmlns="http://www.w3.org/2000/svg" viewBox="0 0 75 75">
  <defs>
    <style>
      .cls-1 {
        stroke-width: 4px;
      }

      .cls-1, .cls-2 {
        fill: none;
        stroke: #fff;
        stroke-miterlimit: 10;
      }

      .cls-2 {
        stroke-width: 3px;
      }
    </style>
  </defs>
  <path class="cls-2" d="M27.03,22.69c0,7.05.34,10.57.46,14.09s.12,7.05.12,14.1c0,.71.88,1.51,1.49,1.15,5.88-3.52,8.53-5.74,11.4-7.62s5.98-3.37,11.86-6.89c.6-.36.4-.77-.2-1.13-5.88-3.52-8.56-5.71-11.48-7.51s-6.1-3.16-11.98-6.69c-.6-.36-1.68-.2-1.68.5Z"/>
  <path class="cls-1" d="M63.12,37.5c0,2.8-.46,5.38-1.28,7.91s-1.5,5.34-3.09,7.53-3.89,3.81-6.1,5.41-4.49,3.03-7.11,3.88-5.23,1.79-8.04,1.79-5.62-.6-8.15-1.42-4.95-2.47-7.13-4.06-3.85-3.77-5.46-5.97-2.88-4.49-3.73-7.12-1.3-5.15-1.3-7.95-.18-5.63.64-8.16,2.73-4.77,4.32-6.95,3.44-4.15,5.65-5.75,4.65-2.55,7.27-3.4,5.08-1.32,7.89-1.32,5.6-.25,8.13.57,4.99,2.37,7.18,3.95,3.95,3.71,5.55,5.91,3.29,4.41,4.15,7.03.61,5.32.61,8.13Z"/>
</svg>