<?xml version="1.0" encoding="UTF-8"?>
<svg id="Calque_8" data-name="Calque 8" xmlns="http://www.w3.org/2000/svg" viewBox="0 0 75 75">
  <defs>
    <style>
      .cls-1 {
        stroke-width: 4px;
      }

      .cls-1, .cls-2 {
        fill: none;
        stroke: #fff;
        stroke-miterlimit: 10;
      }

      .cls-2 {
        stroke-width: 3px;
      }
    </style>
  </defs>
  <path class="cls-1" d="M63.33,36.79c0,2.8-.62,5.4-1.44,7.93s-1.53,5.35-3.12,7.53-3.52,4.33-5.73,5.94-5.01,2.09-7.64,2.94-5.1,1.21-7.91,1.21-5.6.28-8.13-.54-4.91-2.48-7.09-4.07-4.35-3.36-5.96-5.56-2.79-4.69-3.65-7.32-1.45-5.26-1.45-8.06.84-5.46,1.67-7.99,1.9-5.16,3.48-7.35,3.73-3.95,5.93-5.56,4.46-3.18,7.08-4.03,5.3-.81,8.1-.81,5.42.45,7.95,1.27,5.37,1.54,7.56,3.13,3.88,3.89,5.49,6.09,2.95,4.57,3.8,7.2,1.03,5.25,1.03,8.06Z"/>
  <path class="cls-2" d="M37.92,27.28c-.04,3.55-.1,3.55-.14,7.1s-.33,3.55-.38,7.11.33,3.56.29,7.11c-.01.89-1.28,1.52-2.02,1.03-2.7-1.79-2.61-1.94-5.31-3.73s-2.75-1.72-5.46-3.51c-.18-.12-.37-.11-.59-.11-2.16,0-2.16-.07-4.32-.07-.62,0-1.16-.55-1.16-1.17,0-3.25.18-3.25.18-6.49,0-.62.36-1.03.98-1.03,2.08,0,2.08-.23,4.17-.23.21,0,.48.2.65.09,2.82-1.74,2.88-1.65,5.7-3.39s2.72-1.9,5.54-3.64c.75-.46,1.87.05,1.86.93Z"/>
  <path class="cls-2" d="M45.67,53.01c2.55-2.39,2.29-2.14,4.26-5.61,1.03-1.82,1.8-4.14,2.32-6.62.45-2.14.81-4.53.36-7.01-.38-2.09-1.28-4.31-2.6-6.54-1.07-1.8-2.63-3.55-4.48-5.39"/>
  <path class="cls-2" d="M42.72,45.23c3.25-3.05,3.69-3.31,3.77-7.9.04-2.38-.88-5.21-3.66-7.98"/>
</svg>